<svg width="48" height="41" viewBox="0 0 48 41" xmlns="http://www.w3.org/2000/svg"><g fill="none" fill-rule="evenodd"><path fill="#333" d="M-71-251h748V959H-71z"/><g transform="translate(-2 -6)"><circle fill="none" cx="26" cy="26" r="26"/><g transform="translate(2 6)" fill="#FFF" fill-rule="nonzero"><path d="M36 13.062a1 1 0 00-1-1H5a1 1 0 00-1 1v4a1 1 0 001 1h30a1 1 0 001-1v-4zm-2 3H6v-2h28v2zM5 8.063h22a1 1 0 100-2H5a1 1 0 100 2z"/><circle cx="34" cy="6.063" r="2"/><path d="M28 25.062a1 1 0 10-2 0c0 1.803.647 2.775 1.168 3.555.465.697.832 1.248.832 2.445a1 1 0 102 0c0-1.802-.647-2.774-1.168-3.554-.465-.697-.832-1.248-.832-2.446zM11 24.063a1 1 0 00-1 1c0 1.197-.367 1.748-.832 2.445C8.648 28.288 8 29.26 8 31.063a1 1 0 102 0c0-1.198.367-1.749.832-2.446.52-.78 1.168-1.752 1.168-3.555a1 1 0 00-1-1zM19 24.063a1 1 0 00-1 1v6a1 1 0 102 0v-6a1 1 0 00-1-1zM42 24.063h-1v-1a1 1 0 10-2 0v1h-1a1 1 0 100 2h1v1a1 1 0 102 0v-1h1a1 1 0 100-2zM42 32.063h-4a1 1 0 100 2h4a1 1 0 100-2z"/><path d="M44 18.063h-4v-14c0-2.207-1.794-4-4-4H4c-2.206 0-4 1.793-4 4v14c0 2.205 1.794 4 4 4h28v10c0 4.41 3.589 8 8 8s8-3.59 8-8v-10c0-2.207-1.794-4-4-4zm-11.444 2H4c-1.102 0-2-.898-2-2v-14c0-1.103.897-2 2-2h32c1.102 0 2 .897 2 2v14h-2c-1.474 0-2.75.81-3.444 2zm13.444 12c0 3.308-2.691 6-6 6s-6-2.692-6-6v-10c0-1.103.898-2 2-2h8c1.102 0 2 .897 2 2v10z"/></g></g></g></svg>
