<svg width="48" height="36" viewBox="0 0 48 36" xmlns="http://www.w3.org/2000/svg"><g fill="none" fill-rule="evenodd"><path d="M-171-253h748V957h-748z"/><g transform="translate(-2 -8)"><circle fill="none" cx="26" cy="26" r="26"/><g transform="translate(2 8)" fill="#FFF" fill-rule="nonzero"><path d="M24 26c3.309 0 6-2.691 6-6s-2.691-6-6-6-6 2.691-6 6 2.691 6 6 6zm0-10c2.206 0 4 1.794 4 4s-1.794 4-4 4-4-1.794-4-4 1.794-4 4-4z"/><path d="M23 21a1 1 0 001-1 1 1 0 100-2c-1.102 0-2 .897-2 2a1 1 0 001 1z"/><path d="M47 0H1a1 1 0 00-1 1v7c0 2.206 1.794 4 4 4v4c0 11.028 8.972 20 20 20s20-8.972 20-20v-4c2.206 0 4-1.794 4-4V1a1 1 0 00-1-1zm-5 16c0 9.925-8.075 18-18 18S6 25.925 6 16v-4h12.062C15.612 13.824 14 16.717 14 20c0 5.514 4.486 10 10 10s10-4.486 10-10c0-3.283-1.611-6.176-4.062-8H42v4zm-18-4c4.411 0 8 3.589 8 8s-3.589 8-8 8-8-3.589-8-8 3.589-8 8-8zm22-4c0 1.102-.897 2-2 2H4c-1.102 0-2-.898-2-2V2h44v6z"/><circle cx="37" cy="15" r="1"/></g></g></g></svg>
