<?xml version="1.0" encoding="UTF-8"?>
<svg width="14px" height="14px" viewBox="0 0 14 14" version="1.1" xmlns="http://www.w3.org/2000/svg" xmlns:xlink="http://www.w3.org/1999/xlink">
    <!-- Generator: Sketch 51.2 (57519) - http://www.bohemiancoding.com/sketch -->
    <title>cross</title>
    <desc>Created with Sketch.</desc>
    <defs></defs>
    <g id="Events" stroke="none" stroke-width="1" fill="none" fill-rule="evenodd">
        <g id="Assets" transform="translate(-45.000000, -402.000000)" fill="#666666" fill-rule="nonzero" stroke="#666666">
            <g id="151882" transform="translate(46.000000, 403.000000)">
                <path d="M7.06126618,6.00012508 L11.7801172,1.28107736 C12.0732943,0.988138173 12.0732943,0.512831203 11.7801172,0.219892014 C11.48694,-0.0732973379 11.0121532,-0.0732973379 10.718976,0.219892014 L6.00012508,4.93893973 L1.28102395,0.219892014 C0.987846824,-0.0732973379 0.513059974,-0.0732973379 0.219882846,0.219892014 C-0.073294282,0.512831203 -0.073294282,0.988138173 0.219882846,1.28107736 L4.93898397,6.00012508 L0.219882846,10.7191728 C-0.073294282,11.012112 -0.073294282,11.487419 0.219882846,11.7803581 C0.36647141,11.9267027 0.55858748,12 0.750453399,12 C0.942319318,12 1.13443539,11.9267027 1.28102395,11.780108 L6.00012508,7.06106027 L10.718976,11.780108 C10.8655646,11.9267027 11.0576807,12 11.2495466,12 C11.4414125,12 11.6335286,11.9267027 11.7801172,11.780108 C12.0732943,11.4871688 12.0732943,11.0118618 11.7801172,10.7189226 L7.06126618,6.00012508 Z" id="Shape"></path>
            </g>
        </g>
    </g>
</svg>