<svg width="14" height="14" viewBox="0 0 14 14" xmlns="http://www.w3.org/2000/svg"><g fill="none" fill-rule="evenodd"><path fill="#333" d="M-70-407h748V803H-70z"/><path d="M8.061 7.036l4.72-4.55a.705.705 0 000-1.024.77.77 0 00-1.062 0L7 6.012l-4.719-4.55a.77.77 0 00-1.061 0 .705.705 0 000 1.023l4.719 4.55-4.72 4.551a.705.705 0 000 1.024.763.763 0 00.531.211c.192 0 .384-.07.531-.212l4.72-4.55 4.718 4.55a.763.763 0 00.53.212c.192 0 .385-.07.531-.212a.705.705 0 000-1.023l-4.719-4.55z" fill="#FFF" fill-rule="nonzero" stroke="#FFF"/></g></svg>
