<svg width="41" height="48" viewBox="0 0 41 48" xmlns="http://www.w3.org/2000/svg"><g fill="none" fill-rule="evenodd"><circle cx="26" cy="26" r="26" fill="none" fill-opacity="0" transform="translate(-6 -2)"/><path d="M10.902 5.038c.792-.987 1.101-2.522.753-3.73A1.024 1.024 0 0113.623.74c.53 1.838.078 4.08-1.123 5.578-1.094 1.366-1.379 3.768-.122 4.94a1.024 1.024 0 01-1.397 1.499c-2.145-2.001-1.773-5.607-.08-7.72zm6.731 1.19h6.735a1.024 1.024 0 000-2.049h-6.735a1.024 1.024 0 000 2.048zm22.834 9.803v8.197c0 4.095-3.07 7.485-7.03 7.99v9.145h1.022c.566 0 1.024.459 1.024 1.024v4.549c0 .565-.458 1.024-1.024 1.024H1.092a1.024 1.024 0 01-1.024-1.024v-4.549c0-.565.459-1.024 1.024-1.024h.85c-.402-8.83.467-18.753 3.96-22.048L.265 11.586a1.024 1.024 0 01-.197-.603V9a1.024 1.024 0 011.024-1.024h4.239c.186-1.082.638-2.118 1.296-2.939.791-.987 1.101-2.522.753-3.73A1.024 1.024 0 019.347.74c.53 1.837.079 4.08-1.122 5.578-.556.693-.903 1.654-.945 2.585a1.052 1.052 0 01-.004.231c.008.82.26 1.597.827 2.125a1.024 1.024 0 01-1.398 1.497c-.744-.694-1.223-1.64-1.396-2.732H2.116v.624l6.027 8.264a1.068 1.068 0 01.183.396c.033.148.032.3 0 .445h-.001v.002a1.022 1.022 0 01-.525.682c-1.255.687-2.372 3.137-3.067 6.726-.742 3.83-.997 8.733-.74 14.2h27.396V31.258c0-.566.459-1.024 1.024-1.024a6.013 6.013 0 006.006-6.006V16.03a6.013 6.013 0 00-6.006-6.006h-7.021v22.169a3.245 3.245 0 01-3.241 3.24 3.244 3.244 0 01-3.241-3.24V13.057a1.024 1.024 0 012.048 0v19.137a1.194 1.194 0 002.386 0v-22.17l-8.84.001V7.977h17.91c4.44 0 8.053 3.613 8.053 8.054zm-7.032 27.38H2.116v2.5h31.32v-2.5zm-1.022-17.077c.566 0 1.024-.458 1.024-1.024V14.95a1.024 1.024 0 00-2.048 0v10.36c0 .566.459 1.024 1.024 1.024z" fill="#333" fill-rule="nonzero"/></g></svg>
