<svg width="40" height="48" viewBox="0 0 40 48" xmlns="http://www.w3.org/2000/svg"><g transform="translate(-6 -2)" fill="none" fill-rule="evenodd"><circle fill="none" cx="26" cy="26" r="26"/><g fill="#333" fill-rule="nonzero"><path d="M18.303 30.422c.65-.98.971-2.045.947-3.094V6.448c.924 1.017 2.077 2.077 3.273 2.656 2.13 1.032 2.25 2.631 2.184 4.318l-.008.252a1.104 1.104 0 002.207.063l.008-.23c.053-1.39.178-4.643-3.428-6.39-1.789-.867-3.794-3.52-4.416-4.47l-.004-.005c-.013-.02-.027-.039-.042-.058-.008-.01-.015-.022-.024-.032-.01-.013-.022-.025-.033-.037a1.093 1.093 0 00-.267-.218l-.029-.017-.025-.012a1.098 1.098 0 00-.332-.107c-.017-.002-.033-.006-.05-.007-.013-.002-.027-.002-.04-.003l-.072-.004h-.006l-.03.002c-.025 0-.05.001-.074.003L18 2.158l-.065.01-.048.01-.056.015-.054.019c-.016.005-.032.01-.047.017l-.06.027-.038.018-.064.037-.026.016c-.002 0-.003.002-.005.004a1.16 1.16 0 00-.058.042c-.01.008-.022.015-.032.024a1.092 1.092 0 00-.258.305c-.004.008-.01.015-.014.024l-.012.024a1.091 1.091 0 00-.107.331l-.008.052-.002.04a1.197 1.197 0 00-.004.072v20.142c-.995-.668-2.259-1.047-3.657-1.047-.8 0-1.604.127-2.39.378-3.495 1.117-5.58 4.4-4.648 7.316.707 2.213 2.921 3.643 5.64 3.643.801 0 1.605-.127 2.39-.378 1.65-.527 3.045-1.55 3.926-2.877zm-1.84-1.221c-.605.911-1.584 1.62-2.758 1.994a5.638 5.638 0 01-1.717.274c-1.74 0-3.129-.827-3.538-2.107-.561-1.757.882-3.794 3.218-4.54a5.638 5.638 0 011.717-.273c1.74 0 3.128.827 3.537 2.106.258.807.095 1.71-.46 2.546zM45.741 36.494V16.93v-4.152-.005c0-.028-.002-.055-.004-.083l-.002-.029-.01-.067-.008-.044-.01-.042-.019-.066c-.002-.01-.006-.018-.009-.027a1.116 1.116 0 00-.03-.078l-.002-.005-.011-.023a1.048 1.048 0 00-.035-.07l-.024-.038-.032-.05a.986.986 0 00-.035-.047l-.03-.037a1.017 1.017 0 00-.042-.048l-.03-.03a1.16 1.16 0 00-.047-.043 1.068 1.068 0 00-.08-.064l-.041-.028-.044-.027c-.017-.01-.033-.02-.05-.028l-.04-.02a1.119 1.119 0 00-.058-.025l-.04-.015-.06-.02-.048-.012c-.018-.004-.036-.009-.055-.012a1.21 1.21 0 00-.061-.01l-.043-.006a1.142 1.142 0 00-.081-.004h-.028c-.029 0-.058.001-.087.004-.008 0-.016 0-.024.002-.025.002-.049.006-.073.01l-.038.007c-.016.003-.031.008-.047.012-.021.005-.042.01-.062.017l-.029.01a1.14 1.14 0 00-.076.03l-.005.001-15.736 6.955-.006.003-.013.005-.023.012a1.168 1.168 0 00-.07.035l-.039.024-.05.031a1.122 1.122 0 00-.047.036l-.036.028c-.017.014-.033.03-.048.044l-.03.029a1.167 1.167 0 00-.043.047l-.029.033a1.156 1.156 0 00-.064.089l-.026.043c-.01.017-.02.033-.028.05a.801.801 0 00-.045.099l-.014.039c-.008.02-.015.04-.021.061l-.012.045c-.004.02-.01.038-.013.058l-.009.057-.006.048-.004.076-.001.026V39.68c-.993-.663-2.252-1.038-3.645-1.038-.8 0-1.604.127-2.389.378-1.65.527-3.045 1.55-3.926 2.877-.932 1.405-1.189 2.981-.723 4.44.707 2.212 2.921 3.642 5.641 3.642.8 0 1.604-.128 2.39-.378 1.65-.528 3.045-1.55 3.926-2.878.703-1.06 1.021-2.22.935-3.351V24.627l13.546-5.987v14.162c-.994-.663-2.253-1.038-3.645-1.038-.8 0-1.604.127-2.39.378-3.495 1.117-5.58 4.399-4.648 7.316.707 2.213 2.92 3.643 5.64 3.643.801 0 1.605-.128 2.39-.378 1.65-.528 3.045-1.55 3.926-2.878.704-1.06 1.022-2.22.935-3.351zM24.453 47.496a5.638 5.638 0 01-1.717.273c-1.74 0-3.128-.827-3.537-2.106-.258-.807-.095-1.71.46-2.546.604-.91 1.583-1.62 2.757-1.994a5.638 5.638 0 011.717-.273c1.74 0 3.129.826 3.538 2.106.055.175.09.355.107.538v.417l.002.036c-.043.519-.234 1.05-.569 1.554-.604.911-1.584 1.62-2.758 1.995zm5.534-25.284v-1.75l13.546-5.987v1.75l-13.546 5.987zm10.22 18.407a5.638 5.638 0 01-1.716.273c-1.74 0-3.129-.827-3.537-2.106-.562-1.757.881-3.794 3.217-4.54a5.638 5.638 0 011.717-.274c1.74 0 3.128.827 3.537 2.107.056.175.091.355.108.538v.227c0 .043.003.086.008.128-.025.55-.219 1.115-.575 1.652-.605.911-1.584 1.62-2.758 1.995z"/></g></g></svg>
