<svg width="48" height="46" viewBox="0 0 48 46" xmlns="http://www.w3.org/2000/svg"><g fill="none" fill-rule="evenodd"><circle cx="26" cy="26" r="26" fill="none" fill-opacity="0" transform="translate(-2 -3)"/><g fill="#333" fill-rule="nonzero"><path d="M42.593 22.416h-27.19V10.583a3.592 3.592 0 10-4.797-3.387 3.594 3.594 0 002.658 3.465v11.755H6.807a5.352 5.352 0 00-5.345 5.345v10.962c0 .59.479 1.07 1.069 1.07h3.465v4.496c0 .59.48 1.069 1.07 1.069H41.83a1.07 1.07 0 001.069-1.07v-4.496h3.97a1.07 1.07 0 001.068-1.069V27.761a5.35 5.35 0 00-5.345-5.345zM12.744 7.196a1.45 1.45 0 112.9 0 1.45 1.45 0 01-2.9 0zM40.762 43.22H8.134v-3.428h32.628v3.428zm5.039-5.566H3.6v-9.893a3.21 3.21 0 013.207-3.207h35.786a3.21 3.21 0 013.208 3.207v9.893z"/><path d="M10.623 28.02c-.59 0-1.07.478-1.07 1.068v4.03a1.069 1.069 0 102.139 0v-4.03c0-.59-.479-1.069-1.07-1.069zM37.026 27.34a3.487 3.487 0 100 6.974c1.884 0 3.416-1.514 3.487-3.448v-.04a3.491 3.491 0 00-3.487-3.487zm0 4.836a1.35 1.35 0 111.35-1.369c-.039.77-.628 1.37-1.35 1.37zM16.852 28.02a1.07 1.07 0 00-1.069 1.068v4.03a1.07 1.07 0 002.138 0v-4.03c0-.59-.478-1.069-1.069-1.069zM7.533 11.49a1.07 1.07 0 00.755-1.826 3.858 3.858 0 010-5.44A1.069 1.069 0 106.777 2.71a5.996 5.996 0 000 8.466c.2.2.472.313.756.313z"/><path d="M3.445 13.757a1.069 1.069 0 00.756-1.825c-2.756-2.757-2.754-7.28.006-10.083A1.07 1.07 0 102.683.35C-.897 3.986-.894 9.86 2.69 13.444c.2.2.473.313.756.313z"/></g></g></svg>
