<?xml version="1.0" encoding="utf-8"?><svg><symbol viewBox="0 0 10 16" id="Next" xmlns="http://www.w3.org/2000/svg"><path d="M8.27 8.7l-6.03 6.02a.98.98 0 11-1.39-1.4L6.18 8 .85 2.67a.98.98 0 011.39-1.39L8.27 7.3a.98.98 0 010 1.4z" fill="#666" stroke="#666"/></symbol><symbol viewBox="0 0 53 52" id="Prev" xmlns="http://www.w3.org/2000/svg"><g fill="none" fill-rule="evenodd"><rect fill-opacity=".4" fill="#D8D8D8" width="53" height="52" rx="26"/><path d="M11.65 24.01l10.01-9A2 2 0 0125 16.48v18.02A2 2 0 0121.66 36l-10-9.01a2 2 0 010-2.98z" fill="#8C8B8B"/><path d="M24.65 24.01l10.01-9A2 2 0 0138 16.48v18.02A2 2 0 0134.66 36l-10-9.01a2 2 0 010-2.98z" fill="#8C8B8B"/></g></symbol><symbol viewBox="0 0 48 41" id="ac" xmlns="http://www.w3.org/2000/svg"><g fill="none" fill-rule="evenodd"><path d="M-71-251h748V959H-71z"/><g transform="translate(-2 -6)"><circle cx="26" cy="26" r="26"/><g transform="translate(2 6)" fill="#FFF" fill-rule="nonzero"><path d="M36 13.06a1 1 0 00-1-1H5a1 1 0 00-1 1v4a1 1 0 001 1h30a1 1 0 001-1v-4zm-2 3H6v-2h28v2zm-29-8h22a1 1 0 100-2H5a1 1 0 100 2z"/><circle cx="34" cy="6.06" r="2"/><path d="M28 25.06a1 1 0 10-2 0c0 1.8.65 2.78 1.17 3.56.46.7.83 1.24.83 2.44a1 1 0 102 0c0-1.8-.65-2.77-1.17-3.55a3.78 3.78 0 01-.83-2.45zm-17-1a1 1 0 00-1 1c0 1.2-.37 1.75-.83 2.45A5.75 5.75 0 008 31.06a1 1 0 102 0c0-1.2.37-1.75.83-2.44A5.75 5.75 0 0012 25.06a1 1 0 00-1-1zm8 0a1 1 0 00-1 1v6a1 1 0 102 0v-6a1 1 0 00-1-1zm23 0h-1v-1a1 1 0 10-2 0v1h-1a1 1 0 100 2h1v1a1 1 0 102 0v-1h1a1 1 0 100-2zm0 8h-4a1 1 0 100 2h4a1 1 0 100-2z"/><path d="M44 18.06h-4v-14a4 4 0 00-4-4H4a4 4 0 00-4 4v14a4 4 0 004 4h28v10a8.01 8.01 0 0016 0v-10a4 4 0 00-4-4zm-11.44 2H4a2 2 0 01-2-2v-14c0-1.1.9-2 2-2h32a2 2 0 012 2v14h-2c-1.47 0-2.75.81-3.44 2zm13.44 12a6 6 0 01-12 0v-10c0-1.1.9-2 2-2h8a2 2 0 012 2v10z"/></g></g></g></symbol><symbol viewBox="0 0 48 41" id="ac-white" xmlns="http://www.w3.org/2000/svg"><g fill="none" fill-rule="evenodd"><path fill="#333" d="M-71-251h748V959H-71z"/><g transform="translate(-2 -6)"><circle cx="26" cy="26" r="26"/><g transform="translate(2 6)" fill="#FFF" fill-rule="nonzero"><path d="M36 13.06a1 1 0 00-1-1H5a1 1 0 00-1 1v4a1 1 0 001 1h30a1 1 0 001-1v-4zm-2 3H6v-2h28v2zm-29-8h22a1 1 0 100-2H5a1 1 0 100 2z"/><circle cx="34" cy="6.06" r="2"/><path d="M28 25.06a1 1 0 10-2 0c0 1.8.65 2.78 1.17 3.56.46.7.83 1.24.83 2.44a1 1 0 102 0c0-1.8-.65-2.77-1.17-3.55a3.78 3.78 0 01-.83-2.45zm-17-1a1 1 0 00-1 1c0 1.2-.37 1.75-.83 2.45A5.75 5.75 0 008 31.06a1 1 0 102 0c0-1.2.37-1.75.83-2.44A5.75 5.75 0 0012 25.06a1 1 0 00-1-1zm8 0a1 1 0 00-1 1v6a1 1 0 102 0v-6a1 1 0 00-1-1zm23 0h-1v-1a1 1 0 10-2 0v1h-1a1 1 0 100 2h1v1a1 1 0 102 0v-1h1a1 1 0 100-2zm0 8h-4a1 1 0 100 2h4a1 1 0 100-2z"/><path d="M44 18.06h-4v-14a4 4 0 00-4-4H4a4 4 0 00-4 4v14a4 4 0 004 4h28v10a8.01 8.01 0 0016 0v-10a4 4 0 00-4-4zm-11.44 2H4a2 2 0 01-2-2v-14c0-1.1.9-2 2-2h32a2 2 0 012 2v14h-2c-1.47 0-2.75.81-3.44 2zm13.44 12a6 6 0 01-12 0v-10c0-1.1.9-2 2-2h8a2 2 0 012 2v10z"/></g></g></g></symbol><symbol viewBox="0 0 48 41" id="air-conditioner" xmlns="http://www.w3.org/2000/svg"><g transform="translate(-2 -6)" fill="none" fill-rule="evenodd"><circle cx="26" cy="26" r="26"/><g transform="translate(2 6)" fill="#333" fill-rule="nonzero"><path d="M36 13.06a1 1 0 00-1-1H5a1 1 0 00-1 1v4a1 1 0 001 1h30a1 1 0 001-1v-4zm-2 3H6v-2h28v2zm-29-8h22a1 1 0 100-2H5a1 1 0 100 2z"/><circle cx="34" cy="6.06" r="2"/><path d="M28 25.06a1 1 0 10-2 0c0 1.8.65 2.78 1.17 3.56.46.7.83 1.24.83 2.44a1 1 0 102 0c0-1.8-.65-2.77-1.17-3.55a3.78 3.78 0 01-.83-2.45zm-17-1a1 1 0 00-1 1c0 1.2-.37 1.75-.83 2.45A5.75 5.75 0 008 31.06a1 1 0 102 0c0-1.2.37-1.75.83-2.44A5.75 5.75 0 0012 25.06a1 1 0 00-1-1zm8 0a1 1 0 00-1 1v6a1 1 0 102 0v-6a1 1 0 00-1-1zm23 0h-1v-1a1 1 0 10-2 0v1h-1a1 1 0 100 2h1v1a1 1 0 102 0v-1h1a1 1 0 100-2zm0 8h-4a1 1 0 100 2h4a1 1 0 100-2z"/><path d="M44 18.06h-4v-14a4 4 0 00-4-4H4a4 4 0 00-4 4v14a4 4 0 004 4h28v10a8.01 8.01 0 0016 0v-10a4 4 0 00-4-4zm-11.44 2H4a2 2 0 01-2-2v-14c0-1.1.9-2 2-2h32a2 2 0 012 2v14h-2c-1.47 0-2.75.81-3.44 2zm13.44 12a6 6 0 01-12 0v-10c0-1.1.9-2 2-2h8a2 2 0 012 2v10z"/></g></g></symbol><symbol viewBox="0 0 48 25" id="battery" xmlns="http://www.w3.org/2000/svg"><g fill="none" fill-rule="evenodd"><circle cx="26" cy="26" r="26" transform="translate(-2 -14)"/><g fill="#333" fill-rule="nonzero"><path d="M42.74 0H10.2a5.27 5.27 0 00-5.26 5.26v.87H3.16A3.16 3.16 0 000 9.29v5.53a3.16 3.16 0 003.16 3.16h1.78v.86a5.27 5.27 0 005.26 5.26h32.54A5.27 5.27 0 0048 18.84V5.26A5.27 5.27 0 0042.74 0zM3.16 15.87a1.05 1.05 0 01-1.05-1.05V9.29a1.05 1.05 0 011.05-1.05h1.78v7.63H3.16zm42.73 2.97A3.16 3.16 0 0142.75 22H10.2a3.16 3.16 0 01-3.15-3.16V5.26a3.16 3.16 0 013.15-3.15h32.54a3.16 3.16 0 013.15 3.15v13.58z"/><path d="M19.6 11h-1.83V9.16a1.05 1.05 0 10-2.11 0V11h-1.84a1.05 1.05 0 100 2.1h1.84v1.85a1.05 1.05 0 102.1 0V13.1h1.85a1.05 1.05 0 100-2.11zm18.96-2.9c-.58 0-1.05.47-1.05 1.06v5.79a1.05 1.05 0 102.1 0v-5.8c0-.58-.47-1.05-1.05-1.05z"/></g></g></symbol><symbol viewBox="0 0 48 36" id="cam" xmlns="http://www.w3.org/2000/svg"><g fill="none" fill-rule="evenodd"><path d="M-171-253h748V957h-748z"/><g transform="translate(-2 -8)"><circle cx="26" cy="26" r="26"/><g transform="translate(2 8)" fill="#FFF" fill-rule="nonzero"><path d="M24 26a6 6 0 10-.01-12.01A6 6 0 0024 26zm0-10a4 4 0 110 8 4 4 0 010-8z"/><path d="M23 21a1 1 0 001-1 1 1 0 100-2 2 2 0 00-2 2 1 1 0 001 1z"/><path d="M47 0H1a1 1 0 00-1 1v7a4 4 0 004 4v4c0 11.03 8.97 20 20 20s20-8.97 20-20v-4a4 4 0 004-4V1a1 1 0 00-1-1zm-5 16c0 9.93-8.07 18-18 18S6 25.93 6 16v-4h12.06A9.96 9.96 0 0024 30a9.96 9.96 0 005.94-18H42v4zm-18-4a8 8 0 010 16 8 8 0 010-16zm22-4a2 2 0 01-2 2H4a2 2 0 01-2-2V2h44v6z"/><circle cx="37" cy="15" r="1"/></g></g></g></symbol><symbol viewBox="0 0 48 36" id="cam-white" xmlns="http://www.w3.org/2000/svg"><g fill="none" fill-rule="evenodd"><path fill="#333" d="M-171-253h748V957h-748z"/><g transform="translate(-2 -8)"><circle cx="26" cy="26" r="26"/><g transform="translate(2 8)" fill="#FFF" fill-rule="nonzero"><path d="M24 26a6 6 0 10-.01-12.01A6 6 0 0024 26zm0-10a4 4 0 110 8 4 4 0 010-8z"/><path d="M23 21a1 1 0 001-1 1 1 0 100-2 2 2 0 00-2 2 1 1 0 001 1z"/><path d="M47 0H1a1 1 0 00-1 1v7a4 4 0 004 4v4c0 11.03 8.97 20 20 20s20-8.97 20-20v-4a4 4 0 004-4V1a1 1 0 00-1-1zm-5 16c0 9.93-8.07 18-18 18S6 25.93 6 16v-4h12.06A9.96 9.96 0 0024 30a9.96 9.96 0 005.94-18H42v4zm-18-4a8 8 0 010 16 8 8 0 010-16zm22-4a2 2 0 01-2 2H4a2 2 0 01-2-2V2h44v6z"/><circle cx="37" cy="15" r="1"/></g></g></g></symbol><symbol viewBox="0 0 512 512" id="checked" xmlns="http://www.w3.org/2000/svg"><path d="M449.72 239.84a13.68 13.68 0 00-27.3 1.97c.34 4.65.51 9.43.51 14.19 0 109.06-88.72 197.79-197.78 197.79S27.36 365.06 27.36 256 116.09 58.21 225.15 58.21c43.19 0 84.2 13.67 118.62 39.53a13.68 13.68 0 0016.43-21.87 223.11 223.11 0 00-135.05-45.02C101 30.86 0 131.86 0 256s101 225.15 225.15 225.15 225.14-101 225.14-225.15c0-5.41-.2-10.85-.57-16.16z"/><path d="M496.4 61.77a53.43 53.43 0 00-75.48 0l-197.1 197.1L153.93 189a53.43 53.43 0 00-75.48 0 53.43 53.43 0 000 75.48L198.8 384.82a35.25 35.25 0 0025.01 10.34c9.06 0 18.11-3.45 25-10.34L496.4 137.24a53.43 53.43 0 000-75.47zm-19.35 56.13L229.47 365.48a8.02 8.02 0 01-11.32 0L97.81 245.13a26.04 26.04 0 010-36.78c5.07-5.07 11.73-7.6 18.4-7.6s13.31 2.53 18.38 7.6l71.88 71.88a24.36 24.36 0 0017.34 7.19c6.55 0 12.71-2.56 17.34-7.19L440.27 81.12a26.04 26.04 0 0136.78 0 26.04 26.04 0 010 36.78z"/></symbol><symbol viewBox="0 0 14 14" id="cross" xmlns="http://www.w3.org/2000/svg"><path d="M8.06 7l4.72-4.72a.75.75 0 10-1.06-1.06L7 5.94 2.28 1.22a.75.75 0 10-1.06 1.06L5.94 7l-4.72 4.72a.75.75 0 101.06 1.06L7 8.06l4.72 4.72a.75.75 0 001.06 0 .75.75 0 000-1.06L8.06 7z" fill="#666" stroke="#666"/></symbol><symbol viewBox="0 0 14 14" id="cross-white" xmlns="http://www.w3.org/2000/svg"><g fill="none" fill-rule="evenodd"><path fill="#333" d="M-70-407h748V803H-70z"/><path d="M8.06 7.04l4.72-4.55a.7.7 0 000-1.03.77.77 0 00-1.06 0L7 6.01 2.28 1.46a.77.77 0 00-1.06 0 .7.7 0 000 1.02l4.72 4.55-4.72 4.56a.7.7 0 000 1.02.76.76 0 00.53.21c.2 0 .38-.07.53-.21L7 8.06l4.72 4.55a.76.76 0 00.53.21.76.76 0 00.53-.21.7.7 0 000-1.02L8.06 7.04z" fill="#FFF" fill-rule="nonzero" stroke="#FFF"/></g></symbol><symbol viewBox="0 0 39 48" id="fridge" xmlns="http://www.w3.org/2000/svg"><g transform="translate(-7 -2)" fill="none" fill-rule="evenodd"><circle cx="26" cy="26" r="26"/><g fill="#333" fill-rule="nonzero"><path d="M36.6 7.6H35a.8.8 0 100 1.6h1.6a.8.8 0 100-1.6zm-23.2 12H11v11.2h9.6V19.6h-7.2zm3.2 1.6v2.4H15v-2.4h1.6zm2.4 0v8h-6.4v-8h.8v4h4.8v-4h.8zm4-3.2a.8.8 0 00-.8.8v12.8a.8.8 0 101.6 0V18.8a.8.8 0 00-.8-.8zm6.4 0a.8.8 0 00-.8.8v12.8a.8.8 0 101.6 0V18.8a.8.8 0 00-.8-.8zM19 38a.8.8 0 00.8.8h12.8a.8.8 0 100-1.6H19.8a.8.8 0 00-.8.8z"/><path d="M43.66 2H8.74C7.78 2 7 2.78 7 3.74v43.92A2.35 2.35 0 009.34 50h33.72a2.35 2.35 0 002.34-2.34V3.74c0-.96-.78-1.74-1.74-1.74zM8.6 3.74c0-.08.06-.14.14-.14H25.4V34H8.6V3.74zm35.2 43.92c0 .4-.33.74-.74.74H9.34a.74.74 0 01-.74-.74V35.6h35.2v12.06zM27 34V3.6h16.66c.08 0 .14.06.14.14V34H27z"/></g></g></symbol><symbol viewBox="0 0 41 48" id="kettle" xmlns="http://www.w3.org/2000/svg"><g fill="none" fill-rule="evenodd"><circle cx="26" cy="26" r="26" transform="translate(-6 -2)"/><path d="M10.9 5.04c.8-.99 1.1-2.52.75-3.73a1.02 1.02 0 011.97-.57 6.45 6.45 0 01-1.12 5.58c-1.1 1.36-1.38 3.77-.12 4.94a1.02 1.02 0 01-1.4 1.5c-2.14-2-1.77-5.61-.08-7.72zm6.73 1.19h6.74a1.02 1.02 0 000-2.05h-6.74a1.02 1.02 0 000 2.05zm22.84 9.8v8.2c0 4.1-3.07 7.48-7.03 7.99v9.14h1.02c.56 0 1.02.46 1.02 1.03v4.55c0 .56-.45 1.02-1.02 1.02H1.09a1.02 1.02 0 01-1.02-1.02v-4.55c0-.57.46-1.03 1.02-1.03h.85c-.4-8.83.47-18.75 3.96-22.04L.26 11.59a1.02 1.02 0 01-.2-.6V9A1.02 1.02 0 011.1 7.98h4.24a6.5 6.5 0 011.3-2.94c.79-.99 1.1-2.52.75-3.73A1.02 1.02 0 019.35.74a6.45 6.45 0 01-1.13 5.58c-.55.7-.9 1.65-.94 2.58a1.05 1.05 0 010 .23c0 .82.26 1.6.82 2.13a1.02 1.02 0 01-1.4 1.5 4.68 4.68 0 01-1.4-2.74H2.13v.63l6.02 8.26a1.07 1.07 0 01.19.4c.03.15.03.3 0 .44a1.02 1.02 0 01-.53.69c-1.25.68-2.37 3.13-3.07 6.72C4 31 3.73 35.9 4 41.36h27.4v-10.1c0-.57.46-1.03 1.02-1.03a6.01 6.01 0 006-6v-8.2a6.01 6.01 0 00-6-6H25.4v22.16a3.25 3.25 0 01-3.24 3.24 3.24 3.24 0 01-3.24-3.24V13.06a1.02 1.02 0 012.05 0v19.13a1.2 1.2 0 002.38 0V10.02H14.5V7.99h17.91a8.06 8.06 0 018.06 8.05zm-7.04 27.38H2.13v2.5h31.32v-2.5zm-1.02-17.08c.57 0 1.03-.45 1.03-1.02V14.95a1.02 1.02 0 00-2.05 0v10.36c0 .57.46 1.02 1.02 1.02z" fill="#333" fill-rule="nonzero"/></g></symbol><symbol viewBox="0 0 48 45" id="key" xmlns="http://www.w3.org/2000/svg"><g transform="translate(-2 -4)" fill="none" fill-rule="evenodd"><circle cx="26" cy="26" r="26"/><g transform="translate(2 4)" fill="#333" fill-rule="nonzero"><path d="M47.66 20.35l-23-20.1a1 1 0 00-1.32 0l-23 20.1a1.01 1.01 0 00-.28 1.11 1 1 0 00.94.66h5v21.11a1 1 0 001 1h34a1 1 0 001-1V22.12h5a1 1 0 00.94-.66 1.01 1.01 0 00-.28-1.1zM41 20.11a1 1 0 00-1 1v21.11H8v-21.1a1 1 0 00-1-1.01H3.67L24 2.34 44.33 20.1H41z"/><circle cx="28.23" cy="22.59" r="1.88"/><path d="M20.33 23.25c0 .78.13 1.55.38 2.3l-6.29 6.28a1.03 1.03 0 00-.3.74v3.1c0 .57.46 1.04 1.03 1.04h3.1c.28 0 .55-.11.74-.3l6.3-6.3a7.12 7.12 0 002.29.38 7.26 7.26 0 10-7.25-7.24zm7.25-5.18a5.18 5.18 0 015.17 5.18 5.18 5.18 0 01-5.17 5.17 5.12 5.12 0 01-2.12-.46 1.03 1.03 0 00-1.16.2l-6.47 6.48h-1.64v-1.65l6.46-6.46c.31-.3.4-.77.22-1.16a5.13 5.13 0 01-.47-2.12 5.18 5.18 0 015.18-5.18z"/></g></g></symbol><symbol viewBox="0 0 40 48" id="music" xmlns="http://www.w3.org/2000/svg"><g transform="translate(-6 -2)" fill="none" fill-rule="evenodd"><circle cx="26" cy="26" r="26"/><path d="M18.3 30.42c.65-.98.97-2.04.95-3.1V6.46a11.67 11.67 0 003.27 2.65c2.13 1.04 2.25 2.64 2.19 4.32l-.01.25a1.1 1.1 0 002.2.07l.01-.23c.06-1.4.18-4.65-3.42-6.4-1.8-.86-3.8-3.51-4.42-4.46a.78.78 0 00-.05-.07L19 2.55l-.03-.03a1.1 1.1 0 00-.27-.22l-.03-.02-.02-.01a1.1 1.1 0 00-.34-.1l-.05-.02h-.14a.9.9 0 00-.08 0H18l-.07.02h-.04l-.06.02-.05.02a.38.38 0 00-.05.02l-.06.03-.04.01-.06.04-.03.02a1.16 1.16 0 00-.06.04l-.03.03a1.1 1.1 0 00-.26.3l-.01.03-.02.02a1.1 1.1 0 00-.1.33l-.01.05v.04a1.2 1.2 0 000 .07V23.4a6.54 6.54 0 00-3.66-1.05c-.8 0-1.6.13-2.4.38-3.49 1.12-5.57 4.4-4.64 7.31.7 2.22 2.92 3.65 5.64 3.65a7.84 7.84 0 002.39-.38 7.38 7.38 0 003.92-2.88zm-1.84-1.22a5.16 5.16 0 01-2.75 2 5.64 5.64 0 01-1.72.27c-1.74 0-3.13-.83-3.54-2.1-.56-1.76.88-3.8 3.22-4.55a5.64 5.64 0 011.72-.27c1.74 0 3.12.83 3.53 2.1.26.81.1 1.72-.46 2.55zm29.28 7.3V12.76v-.11l-.02-.07v-.04l-.01-.04-.02-.07-.01-.03a1.12 1.12 0 00-.03-.07l-.01-.03a1.05 1.05 0 00-.04-.07l-.02-.04-.04-.05a.99.99 0 00-.03-.05l-.03-.03a1.02 1.02 0 00-.04-.05l-.03-.03a1.16 1.16 0 00-.05-.04 1.07 1.07 0 00-.08-.07l-.04-.03-.04-.02-.05-.03-.04-.02a1.12 1.12 0 00-.06-.03l-.04-.01-.06-.02-.05-.01-.05-.02a1.21 1.21 0 00-.07 0l-.04-.01a1.14 1.14 0 00-.08 0h-.03a.84.84 0 00-.08 0h-.03a.85.85 0 00-.07.01h-.04l-.05.02a.63.63 0 00-.06.02h-.03a1.14 1.14 0 00-.07.04l-15.74 6.95h-.01l-.01.01-.03.01a1.17 1.17 0 00-.07.04l-.04.02-.05.03a1.12 1.12 0 00-.04.04l-.04.03-.05.04-.03.03a1.17 1.17 0 00-.04.05l-.03.03a1.16 1.16 0 00-.06.09l-.03.04c0 .02-.02.03-.03.05a.8.8 0 00-.04.1l-.02.04a.63.63 0 00-.02.06v.05l-.02.05-.01.06v.05l-.01.07V39.69a6.54 6.54 0 00-3.65-1.04 7.84 7.84 0 00-6.31 3.26 5.11 5.11 0 00-.73 4.44c.71 2.2 2.93 3.64 5.65 3.64.8 0 1.6-.13 2.39-.38a7.38 7.38 0 003.92-2.88 5.32 5.32 0 00.94-3.35V24.63l13.54-5.99V32.8a6.54 6.54 0 00-3.64-1.04c-.8 0-1.6.13-2.4.38-3.49 1.12-5.57 4.4-4.64 7.32.7 2.21 2.92 3.64 5.64 3.64a7.87 7.87 0 002.39-.38 7.38 7.38 0 003.93-2.88 5.3 5.3 0 00.93-3.35zm-21.29 11a5.64 5.64 0 01-1.71.27c-1.74 0-3.13-.83-3.54-2.1-.26-.81-.1-1.72.46-2.55a5.16 5.16 0 012.76-2 5.64 5.64 0 011.71-.27c1.74 0 3.13.83 3.54 2.1.06.18.1.36.1.54v.42l.01.04a3.32 3.32 0 01-.57 1.55 5.17 5.17 0 01-2.76 2zM30 22.2v-1.75l13.54-5.98v1.75L30 22.2zm10.22 18.4a5.64 5.64 0 01-1.72.28c-1.74 0-3.13-.82-3.54-2.1-.56-1.76.88-3.8 3.22-4.54a5.64 5.64 0 011.72-.28c1.74 0 3.13.83 3.53 2.1.06.18.1.36.11.55v.22l.01.13a3.27 3.27 0 01-.57 1.65 5.17 5.17 0 01-2.76 2z" fill="#333" fill-rule="nonzero"/></g></symbol><symbol viewBox="0 0 48 29" id="robot-cleaner" xmlns="http://www.w3.org/2000/svg"><g transform="translate(-2 -12)" fill="none" fill-rule="evenodd"><circle cx="26" cy="26" r="26"/><g transform="translate(2 12)" fill="#333" fill-rule="nonzero"><path d="M24 .06c-12.34 0-24 5.35-24 11 0 10.77 3.93 17 24 17s24-6.23 24-17c0-5.65-11.66-11-24-11zm0 2c12.76 0 22 5.38 22 9 0 3.38-8.84 7-22 7s-22-3.62-22-7c0-3.62 9.24-9 22-9zm0 24c-15.72 0-20.6-3.82-21.71-10.94C6.34 18.37 15.2 20.06 24 20.06s17.66-1.69 21.71-4.94C44.6 22.24 39.72 26.06 24 26.06z"/><circle cx="18" cy="5.06" r="1"/><circle cx="22" cy="5.06" r="1"/><circle cx="26" cy="5.06" r="1"/><circle cx="30" cy="5.06" r="1"/><path d="M22 23.06a1 1 0 001 1h2a1 1 0 100-2h-2a1 1 0 00-1 1z"/></g></g></symbol><symbol viewBox="0 0 48 46" id="router" xmlns="http://www.w3.org/2000/svg"><g fill="none" fill-rule="evenodd"><circle cx="26" cy="26" r="26" transform="translate(-2 -3)"/><g fill="#333" fill-rule="nonzero"><path d="M42.6 22.42H15.4V10.58a3.6 3.6 0 10-4.8-3.38 3.6 3.6 0 002.66 3.46v11.76H6.81a5.35 5.35 0 00-5.35 5.34v10.96c0 .6.48 1.07 1.07 1.07H6v4.5c0 .59.48 1.07 1.07 1.07h34.76a1.07 1.07 0 001.07-1.07v-4.5h3.97a1.07 1.07 0 001.07-1.07V27.76a5.35 5.35 0 00-5.35-5.34zM12.73 7.2a1.45 1.45 0 112.9 0 1.45 1.45 0 01-2.9 0zm28.02 36.02H8.13v-3.43h32.63v3.43zm5.04-5.57H3.6v-9.89a3.21 3.21 0 013.2-3.2h35.8a3.21 3.21 0 013.2 3.2v9.9z"/><path d="M10.62 28.02c-.59 0-1.07.48-1.07 1.07v4.03a1.07 1.07 0 102.14 0v-4.03a1.07 1.07 0 00-1.07-1.07zm26.4-.68a3.49 3.49 0 100 6.97 3.52 3.52 0 003.5-3.44v-.04a3.5 3.5 0 00-3.5-3.5zm0 4.84a1.35 1.35 0 111.36-1.37c-.04.77-.63 1.37-1.35 1.37zm-20.17-4.16a1.07 1.07 0 00-1.07 1.07v4.03a1.07 1.07 0 002.14 0v-4.03c0-.6-.48-1.07-1.07-1.07zM7.53 11.49a1.07 1.07 0 00.76-1.83 3.86 3.86 0 010-5.44 1.07 1.07 0 10-1.51-1.51 6 6 0 000 8.47c.2.2.47.3.75.3z"/><path d="M3.44 13.76a1.07 1.07 0 00.76-1.83 7.18 7.18 0 010-10.08A1.07 1.07 0 102.69.35a9.32 9.32 0 00.01 13.1c.2.2.47.3.76.3z"/></g></g></symbol><symbol viewBox="0 0 48 23" id="stats" xmlns="http://www.w3.org/2000/svg"><g transform="translate(-2 -16)" fill="none" fill-rule="evenodd"><circle cx="26" cy="26" r="26"/><g fill="#333" fill-rule="nonzero"><path d="M44.9 16a5.13 5.13 0 00-4.26 7.96l-5.51 5.57a5.03 5.03 0 00-2.78-.84c-1.06 0-2.05.33-2.87.9l-5.56-5.63a5.16 5.16 0 00.83-2.8c0-2.85-2.29-5.16-5.1-5.16a5.13 5.13 0 00-4.27 7.96l-5.5 5.57a5.03 5.03 0 00-2.78-.84A5.13 5.13 0 002 33.85 5.13 5.13 0 007.1 39c2.8 0 5.1-2.31 5.1-5.15a5.16 5.16 0 00-.83-2.81l5.5-5.57a5.02 5.02 0 005.56 0l5.6 5.66a5.16 5.16 0 00-.78 2.72c0 2.84 2.29 5.15 5.1 5.15s5.1-2.31 5.1-5.15a5.16 5.16 0 00-.83-2.81l5.5-5.57c.8.53 1.76.84 2.78.84 2.81 0 5.1-2.31 5.1-5.16A5.13 5.13 0 0044.9 16zM7.1 36.87a3 3 0 01-3-3.02 3 3 0 013-3.03c1.65 0 2.99 1.36 2.99 3.03a3 3 0 01-3 3.02zm12.55-12.7c-1.65 0-2.99-1.35-2.99-3.02s1.34-3.02 2.99-3.02c1.65 0 2.99 1.36 2.99 3.02s-1.34 3.03-2.99 3.03zm12.7 12.7a3.01 3.01 0 010-6.05c1.65 0 2.99 1.36 2.99 3.03a3 3 0 01-3 3.02zm12.55-12.7c-1.64 0-2.99-1.35-2.99-3.02s1.35-3.02 3-3.02c1.64 0 2.98 1.36 2.98 3.02s-1.34 3.03-2.99 3.03z"/><path d="M18.71 28.29a1 1 0 00-1.4 0l-2.02 2.02a1 1 0 001.4 1.4l2.02-2.02a1 1 0 000-1.4zm19-6a1 1 0 00-1.4 0l-2.02 2.02a1 1 0 001.4 1.4l2.02-2.02a1 1 0 000-1.4z"/></g></g></symbol><symbol viewBox="0 0 48 48" id="thermal" xmlns="http://www.w3.org/2000/svg"><g transform="translate(-2 -4)" fill="none" fill-rule="evenodd"><circle cx="26" cy="26" r="26"/><g fill="#333" fill-rule="nonzero"><path d="M27.1 21.02c0-1.64-1.37-2.98-3.06-2.98s-3.06 1.34-3.06 2.98v12.3a3.91 3.91 0 00-1.02 2.62c0 2.2 1.83 3.98 4.08 3.98s4.08-1.79 4.08-3.98c0-.96-.36-1.89-1.02-2.61v-12.3zm-3.06 16.91c-1.12 0-2.04-.9-2.04-1.99 0-.56.24-1.08.68-1.47a.98.98 0 00.34-.74v-12.7a1 1 0 011.02-1 1 1 0 011.02 1v12.7c0 .28.12.55.34.74.44.39.68.9.68 1.47 0 1.1-.91 1.99-2.04 1.99z"/><path d="M46 30h-4v-4h3.03a1 1 0 00.93-.63 1 1 0 00-.24-1.1l-21.03-20a1 1 0 00-1.38 0l-21 20a1 1 0 00-.24 1.1A1 1 0 003 26h3v19a1 1 0 001 1h27.28A8 8 0 0050 44V34a4 4 0 00-4-4zm-12 4v10H8V25a1 1 0 00-1-1H5.5L24 6.38 42.53 24H41a1 1 0 00-1 1v5h-2a4 4 0 00-4 4zm14 10a6 6 0 01-12 0V34c0-1.1.9-2 2-2h8a2 2 0 012 2v10z"/><path d="M43.8 36h-.98v-.98a.98.98 0 10-1.96 0V36h-.98a.98.98 0 100 1.96h.98v.98a.98.98 0 101.96 0v-.98h.98a.98.98 0 100-1.96zm0 7.84h-3.92a.98.98 0 100 1.96h3.92a.98.98 0 100-1.96z"/></g></g></symbol></svg>
