<svg width="16" height="16" viewBox="0 0 16 16" fill="none" xmlns="http://www.w3.org/2000/svg">
<path d="M0 0V6.4H3.29C3.395 5.5475 3.62 4.4575 4.09 4.03C4.52875 3.63125 5.5775 3.41875 6.4 3.31V0H0ZM7.52 3.84C7.13625 3.84 5.00125 4.0625 4.52 4.5C3.99625 4.97625 3.84 7.28625 3.84 7.52C3.84 7.8675 4.025 10.045 4.5 10.52C4.87 10.9262 6.33875 11.1075 7.09 11.17C7.23125 10.1362 7.695 9.185 8.44 8.44C9.185 7.695 10.1362 7.23125 11.17 7.09C11.105 6.3325 10.915 4.895 10.54 4.52C10.0638 3.99625 7.75375 3.84 7.52 3.84ZM11.84 7.68C10.7225 7.68 9.6725 8.1075 8.89 8.89C8.1075 9.6725 7.68 10.7225 7.68 11.84C7.68 12.9575 8.1075 14.0075 8.89 14.79C9.6725 15.5725 10.7225 16 11.84 16C12.9575 16 14.0075 15.5725 14.79 14.79C15.5725 14.0075 16 12.9575 16 11.84C16 10.7225 15.5725 9.6725 14.79 8.89C14.0075 8.1075 12.9575 7.68 11.84 7.68Z" fill="#FF5668"/>
</svg>
