<svg width="10" height="13" viewBox="0 0 10 13" fill="none" xmlns="http://www.w3.org/2000/svg">
<path d="M9.23679 3.875C9.23679 2.84375 8.39304 2 7.36179 2C6.3071 2 5.48679 2.84375 5.48679 3.875C5.48679 4.74219 6.04929 5.46875 6.82273 5.67969C6.79929 6.05469 6.72898 6.35938 6.56492 6.54688C6.21335 6.99219 5.41648 7.08594 4.57273 7.15625C3.91648 7.20312 3.21335 7.27344 2.67429 7.55469V4.17969C3.42429 3.94531 3.98679 3.21875 3.98679 2.375C3.98679 1.34375 3.14304 0.5 2.11179 0.5C1.0571 0.5 0.236791 1.34375 0.236791 2.375C0.236791 3.21875 0.775853 3.94531 1.54929 4.17969V8.84375C0.775853 9.07812 0.236791 9.80469 0.236791 10.625C0.236791 11.6797 1.0571 12.5 2.11179 12.5C3.14304 12.5 3.98679 11.6797 3.98679 10.625C3.98679 9.82812 3.47117 9.14844 2.76804 8.89062C2.83835 8.77344 2.95554 8.65625 3.1196 8.5625C3.4946 8.375 4.08054 8.32812 4.66648 8.28125C5.67429 8.1875 6.77585 8.07031 7.45554 7.25C7.78367 6.85156 7.94773 6.3125 7.94773 5.65625C8.69773 5.42188 9.23679 4.71875 9.23679 3.875ZM2.11179 2C2.29929 2 2.48679 2.1875 2.48679 2.375C2.48679 2.58594 2.29929 2.75 2.11179 2.75C1.90085 2.75 1.73679 2.58594 1.73679 2.375C1.73679 2.1875 1.90085 2 2.11179 2ZM2.11179 11C1.90085 11 1.73679 10.8359 1.73679 10.625C1.73679 10.4375 1.90085 10.25 2.11179 10.25C2.29929 10.25 2.48679 10.4375 2.48679 10.625C2.48679 10.8359 2.29929 11 2.11179 11ZM7.36179 3.5C7.54929 3.5 7.73679 3.6875 7.73679 3.875C7.73679 4.08594 7.54929 4.25 7.36179 4.25C7.15085 4.25 6.98679 4.08594 6.98679 3.875C6.98679 3.6875 7.15085 3.5 7.36179 3.5Z" fill="black"/>
</svg>
