<svg width="13" height="13" viewBox="0 0 13 13" fill="none" xmlns="http://www.w3.org/2000/svg">
<path d="M10.9375 0.625H1.3125C0.574219 0.625 0 1.22656 0 1.9375V11.5625C0 12.3008 0.574219 12.875 1.3125 12.875H10.9375C11.6484 12.875 12.25 12.3008 12.25 11.5625V1.9375C12.25 1.22656 11.6484 0.625 10.9375 0.625ZM10.7734 11.5625H1.47656C1.36719 11.5625 1.3125 11.5078 1.3125 11.3984V2.10156C1.3125 2.01953 1.36719 1.9375 1.47656 1.9375H10.7734C10.8555 1.9375 10.9375 2.01953 10.9375 2.10156V11.3984C10.9375 11.5078 10.8555 11.5625 10.7734 11.5625ZM9.29688 3.25H5.57812C5.27734 3.25 5.11328 3.60547 5.33203 3.82422L6.64453 5.13672L2.70703 9.07422C2.57031 9.21094 2.57031 9.42969 2.70703 9.53906L3.33594 10.168C3.44531 10.3047 3.66406 10.3047 3.80078 10.168L7.73828 6.23047L9.05078 7.54297C9.26953 7.73438 9.625 7.59766 9.625 7.29688V3.57812C9.625 3.41406 9.46094 3.25 9.29688 3.25Z" fill="#7F8285"/>
</svg>
