<svg width="9" height="13" viewBox="0 0 9 13" xmlns="http://www.w3.org/2000/svg">
<path d="M5.25 3.6875V0.5H0.5625C0.234375 0.5 0 0.757812 0 1.0625V11.9375C0 12.2656 0.234375 12.5 0.5625 12.5H8.4375C8.74219 12.5 9 12.2656 9 11.9375V4.25H5.8125C5.48438 4.25 5.25 4.01562 5.25 3.6875ZM6.75 9.21875C6.75 9.38281 6.60938 9.5 6.46875 9.5H2.53125C2.36719 9.5 2.25 9.38281 2.25 9.21875V9.03125C2.25 8.89062 2.36719 8.75 2.53125 8.75H6.46875C6.60938 8.75 6.75 8.89062 6.75 9.03125V9.21875ZM6.75 7.71875C6.75 7.88281 6.60938 8 6.46875 8H2.53125C2.36719 8 2.25 7.88281 2.25 7.71875V7.53125C2.25 7.39062 2.36719 7.25 2.53125 7.25H6.46875C6.60938 7.25 6.75 7.39062 6.75 7.53125V7.71875ZM6.75 6.03125V6.21875C6.75 6.38281 6.60938 6.5 6.46875 6.5H2.53125C2.36719 6.5 2.25 6.38281 2.25 6.21875V6.03125C2.25 5.89062 2.36719 5.75 2.53125 5.75H6.46875C6.60938 5.75 6.75 5.89062 6.75 6.03125ZM9 3.35938C9 3.21875 8.92969 3.07812 8.83594 2.96094L6.53906 0.664062C6.42188 0.570312 6.28125 0.5 6.14062 0.5H6V3.5H9V3.35938Z"/>
</svg>
