<svg width="16" height="15" viewBox="0 0 16 15" xmlns="http://www.w3.org/2000/svg">
<path d="M6.42578 14.75C6.48047 14.7773 6.53516 14.7773 6.58984 14.7227C6.64453 14.6953 6.67188 14.6406 6.69922 14.5859L10.5547 1.35156C10.5547 1.29688 10.5273 1.21484 10.5 1.16016C10.4727 1.10547 10.4453 1.07812 10.3906 1.07812L9.32422 0.75C9.26953 0.75 9.21484 0.75 9.16016 0.777344C9.10547 0.832031 9.05078 0.859375 9.05078 0.914062L5.19531 14.1484C5.19531 14.2305 5.19531 14.2852 5.22266 14.3398C5.25 14.3945 5.30469 14.4219 5.35938 14.4219L6.42578 14.75ZM4.15625 11.4414C4.10156 11.4961 4.04688 11.4961 3.99219 11.4961C3.9375 11.4961 3.88281 11.4961 3.82812 11.4414L0.0820312 7.91406C0.0273438 7.85938 0 7.80469 0 7.75C0 7.69531 0.0273438 7.64062 0.0820312 7.58594L3.82812 4.05859C3.88281 4.03125 3.9375 4.00391 3.99219 4.00391C4.04688 4.00391 4.10156 4.03125 4.15625 4.05859L4.89453 4.85156C4.92188 4.90625 4.94922 4.98828 4.94922 5.04297C4.94922 5.09766 4.92188 5.15234 4.86719 5.17969L1.96875 7.75L4.86719 10.3203C4.92188 10.375 4.94922 10.4297 4.94922 10.4844C4.94922 10.5391 4.92188 10.5938 4.89453 10.6484L4.15625 11.4414ZM11.9219 11.4414C11.8672 11.4961 11.8125 11.4961 11.7578 11.4961C11.7031 11.4961 11.6484 11.4961 11.5938 11.4414L10.8555 10.6484C10.8008 10.5938 10.8008 10.5391 10.8008 10.4844C10.8008 10.4297 10.8281 10.375 10.8828 10.3203L13.7812 7.75L10.8828 5.17969C10.8281 5.15234 10.8008 5.09766 10.8008 5.04297C10.8008 4.98828 10.8008 4.90625 10.8555 4.85156L11.5938 4.05859C11.6484 4.03125 11.7031 4.00391 11.7578 4.00391C11.8125 4.00391 11.8672 4.03125 11.9219 4.05859L15.668 7.58594C15.7227 7.64062 15.75 7.69531 15.75 7.75C15.75 7.80469 15.7227 7.85938 15.668 7.91406L11.9219 11.4414Z"/>
</svg>
