<svg width="12" height="10" viewBox="0 0 12 10" xmlns="http://www.w3.org/2000/svg">
<path d="M11.0703 1.77344C11.2227 1.77344 11.375 1.64648 11.375 1.46875V0.65625C11.375 0.503906 11.2227 0.351562 11.0703 0.351562H0.304688C0.126953 0.351562 0 0.503906 0 0.65625V1.46875C0 1.64648 0.126953 1.77344 0.304688 1.77344H11.0703ZM11.0703 5.83594C11.2227 5.83594 11.375 5.70898 11.375 5.53125V4.71875C11.375 4.56641 11.2227 4.41406 11.0703 4.41406H0.304688C0.126953 4.41406 0 4.56641 0 4.71875V5.53125C0 5.70898 0.126953 5.83594 0.304688 5.83594H11.0703ZM11.0703 9.89844C11.2227 9.89844 11.375 9.77148 11.375 9.59375V8.78125C11.375 8.62891 11.2227 8.47656 11.0703 8.47656H0.304688C0.126953 8.47656 0 8.62891 0 8.78125V9.59375C0 9.77148 0.126953 9.89844 0.304688 9.89844H11.0703Z"/>
</svg>
