<svg width="12" height="15" viewBox="0 0 12 15" fill="none" xmlns="http://www.w3.org/2000/svg">
<path d="M11.3408 4.08594C11.3408 3.92188 11.2588 3.75781 11.1494 3.62109L8.46973 0.941406C8.33301 0.832031 8.16895 0.75 8.00488 0.75H7.84082V4.25H11.3408V4.08594ZM7.62207 5.125H11.3408V14.0938C11.3408 14.2852 11.2588 14.4492 11.1494 14.5586C11.0127 14.6953 10.8486 14.75 10.6846 14.75H1.49707C1.30566 14.75 1.1416 14.6953 1.03223 14.5586C0.895508 14.4492 0.84082 14.2852 0.84082 14.0938V1.40625C0.84082 1.24219 0.895508 1.07812 1.03223 0.941406C1.1416 0.832031 1.30566 0.75 1.49707 0.75H6.96582V4.46875C6.96582 4.66016 7.02051 4.82422 7.15723 4.93359C7.2666 5.07031 7.43066 5.125 7.62207 5.125ZM4.2041 11.7148L4.75098 11.1406C4.75098 11.1133 4.77832 11.0859 4.77832 11.0312C4.77832 10.9766 4.75098 10.9492 4.72363 10.9219L3.62988 9.9375L4.72363 8.95312C4.75098 8.95312 4.77832 8.92578 4.77832 8.87109C4.77832 8.81641 4.75098 8.78906 4.75098 8.73438L4.2041 8.16016C4.17676 8.16016 4.14941 8.13281 4.09473 8.13281C4.04004 8.13281 4.0127 8.16016 4.0127 8.16016L2.23535 9.82812C2.18066 9.88281 2.18066 9.91016 2.18066 9.9375C2.18066 9.99219 2.18066 10.0195 2.23535 10.0469L4.0127 11.7148C4.0127 11.7422 4.04004 11.7422 4.09473 11.7422C4.14941 11.7422 4.17676 11.7422 4.2041 11.7148ZM5.62598 13.082C5.65332 13.1094 5.68066 13.1094 5.73535 13.082C5.7627 13.0547 5.79004 13.0273 5.79004 12.9727L7.48535 7.20312C7.48535 7.17578 7.45801 7.14844 7.45801 7.09375C7.43066 7.06641 7.40332 7.03906 7.37598 7.01172L6.61035 6.79297C6.55566 6.79297 6.52832 6.79297 6.50098 6.82031C6.44629 6.84766 6.44629 6.875 6.44629 6.90234L4.75098 12.6719C4.75098 12.7266 4.75098 12.7539 4.77832 12.7812C4.77832 12.8359 4.80566 12.8633 4.86035 12.8633L5.62598 13.082ZM10.001 10.0469C10.0283 10.0195 10.0557 9.99219 10.0557 9.9375C10.0557 9.91016 10.0283 9.88281 10.001 9.82812L8.22363 8.16016C8.19629 8.16016 8.16895 8.13281 8.11426 8.13281C8.05957 8.13281 8.03223 8.16016 8.03223 8.16016L7.48535 8.73438C7.45801 8.78906 7.45801 8.81641 7.45801 8.87109C7.45801 8.92578 7.45801 8.95312 7.5127 8.95312L8.60645 9.9375L7.5127 10.9219C7.45801 10.9492 7.45801 10.9766 7.45801 11.0312C7.45801 11.0859 7.45801 11.1133 7.48535 11.1406L8.03223 11.7148C8.03223 11.7422 8.05957 11.7422 8.11426 11.7422C8.16895 11.7422 8.19629 11.7422 8.22363 11.7148L10.001 10.0469Z" fill="#B8BEC3"/>
</svg>
