<?xml version="1.0" encoding="utf-8"?><svg xmlns="http://www.w3.org/2000/svg" xmlns:xlink="http://www.w3.org/1999/xlink"><symbol viewBox="0 0 7 13" id="icon-arrow-back" xmlns="http://www.w3.org/2000/svg"><path d="M6.316 12.71l.547-.519c.11-.136.11-.355 0-.464L1.914 6.75l4.95-4.95c.109-.109.109-.327 0-.464l-.548-.52a.315.315 0 00-.464 0L.109 6.531a.37.37 0 000 .465l5.743 5.715a.315.315 0 00.464 0z"/></symbol><symbol viewBox="0 0 10 19" id="icon-arrow-next" xmlns="http://www.w3.org/2000/svg"><path d="M.938 1.023l-.782.743C0 1.96 0 2.273.156 2.43l7.07 7.07-7.07 7.11c-.156.156-.156.468 0 .663l.781.743a.45.45 0 00.665 0l8.203-8.164a.529.529 0 000-.665L1.602 1.024a.45.45 0 00-.665 0z"/></symbol><symbol viewBox="0 0 10 13" id="icon-branch" xmlns="http://www.w3.org/2000/svg"><path d="M9.237 3.875A1.88 1.88 0 007.362 2a1.866 1.866 0 00-1.875 1.875c0 .867.562 1.594 1.336 1.805-.024.375-.094.68-.258.867-.352.445-1.149.539-1.992.61-.657.046-1.36.116-1.899.398V4.18a1.9 1.9 0 001.313-1.805A1.88 1.88 0 002.112.5 1.866 1.866 0 00.237 2.375c0 .844.539 1.57 1.312 1.805v4.664a1.864 1.864 0 00-1.312 1.781c0 1.055.82 1.875 1.875 1.875 1.031 0 1.875-.82 1.875-1.875 0-.797-.516-1.477-1.219-1.734a.96.96 0 01.352-.329c.375-.187.96-.234 1.546-.28 1.008-.095 2.11-.212 2.79-1.032.328-.398.492-.938.492-1.594a1.85 1.85 0 001.289-1.781zM2.112 2c.187 0 .375.188.375.375 0 .21-.188.375-.375.375a.37.37 0 01-.375-.375c0-.188.164-.375.375-.375zm0 9a.37.37 0 01-.375-.375c0-.188.164-.375.375-.375.187 0 .375.188.375.375 0 .21-.188.375-.375.375zm5.25-7.5c.187 0 .375.188.375.375 0 .21-.188.375-.375.375a.37.37 0 01-.375-.375c0-.188.164-.375.375-.375z"/></symbol><symbol fill="none" viewBox="0 0 16 16" id="icon-change" xmlns="http://www.w3.org/2000/svg"><path d="M0 0v6.4h3.29c.105-.853.33-1.943.8-2.37.439-.399 1.487-.611 2.31-.72V0H0zm7.52 3.84c-.384 0-2.519.223-3 .66-.524.476-.68 2.786-.68 3.02 0 .348.185 2.525.66 3 .37.406 1.839.588 2.59.65a4.746 4.746 0 011.35-2.73 4.746 4.746 0 012.73-1.35c-.065-.758-.255-2.195-.63-2.57-.476-.524-2.786-.68-3.02-.68zm4.32 3.84a4.141 4.141 0 00-2.95 1.21 4.141 4.141 0 00-1.21 2.95c0 1.117.428 2.168 1.21 2.95A4.141 4.141 0 0011.84 16a4.141 4.141 0 002.95-1.21A4.141 4.141 0 0016 11.84a4.141 4.141 0 00-1.21-2.95 4.141 4.141 0 00-2.95-1.21z" fill="#FF5668"/></symbol><symbol viewBox="0 0 16 15" id="icon-code" xmlns="http://www.w3.org/2000/svg"><path d="M6.426 14.75c.054.027.11.027.164-.027.055-.028.082-.082.11-.137l3.855-13.234a.508.508 0 00-.055-.192c-.027-.055-.055-.082-.11-.082L9.325.75c-.054 0-.11 0-.164.027-.055.055-.11.082-.11.137L5.196 14.148c0 .082 0 .137.028.192a.15.15 0 00.136.082l1.067.328zm-2.27-3.309c-.054.055-.11.055-.164.055-.054 0-.11 0-.164-.055L.082 7.914C.027 7.86 0 7.804 0 7.75c0-.055.027-.11.082-.164l3.746-3.527c.055-.028.11-.055.164-.055.055 0 .11.027.164.055l.739.793a.507.507 0 01.054.191.15.15 0 01-.082.137L1.97 7.75l2.898 2.57c.055.055.082.11.082.164 0 .055-.027.11-.054.164l-.739.793zm7.766 0c-.055.055-.11.055-.164.055-.055 0-.11 0-.164-.055l-.739-.793c-.054-.054-.054-.109-.054-.164 0-.054.027-.109.082-.164l2.898-2.57-2.898-2.57a.15.15 0 01-.082-.137c0-.055 0-.137.054-.191l.739-.793a.388.388 0 01.164-.055c.055 0 .11.027.164.055l3.746 3.527c.055.055.082.11.082.164 0 .055-.027.11-.082.164l-3.746 3.527z"/></symbol><symbol viewBox="0 0 9 13" id="icon-document" xmlns="http://www.w3.org/2000/svg"><path d="M5.25 3.688V.5H.562A.555.555 0 000 1.063v10.874c0 .329.234.563.563.563h7.875A.555.555 0 009 11.937V4.25H5.812a.542.542 0 01-.562-.563zm1.5 5.53c0 .165-.14.282-.281.282H2.53a.27.27 0 01-.281-.281V9.03c0-.14.117-.281.281-.281H6.47c.14 0 .281.14.281.281v.188zm0-1.5c0 .165-.14.282-.281.282H2.53a.27.27 0 01-.281-.281V7.53c0-.14.117-.281.281-.281H6.47c.14 0 .281.14.281.281v.188zm0-1.687v.188c0 .164-.14.281-.281.281H2.53a.27.27 0 01-.281-.281V6.03c0-.14.117-.281.281-.281H6.47c.14 0 .281.14.281.281zM9 3.36c0-.14-.07-.28-.164-.398L6.539.664A.665.665 0 006.141.5H6v3h3v-.14z"/></symbol><symbol viewBox="0 0 14 13" id="icon-download" xmlns="http://www.w3.org/2000/svg"><path d="M12.375 7.25c.305 0 .563.117.797.328.21.234.328.492.328.797v3c0 .328-.117.586-.328.797a1.062 1.062 0 01-.797.328H1.125c-.328 0-.586-.094-.797-.328C.094 11.96 0 11.703 0 11.375v-3c0-.305.094-.563.328-.797.211-.21.469-.328.797-.328h2.156L2.203 6.172a1.062 1.062 0 01-.328-.797c0-.305.117-.563.328-.797.211-.21.469-.328.797-.328h1.5V1.625c0-.305.094-.563.328-.797C5.04.618 5.297.5 5.625.5h2.25c.305 0 .563.117.797.328.21.235.328.492.328.797V4.25h1.5c.328 0 .586.117.797.328.21.234.328.492.328.797 0 .305-.094.563-.328.797L10.219 7.25h2.156zM3 5.375l3.75 3.75 3.75-3.75H7.875v-3.75h-2.25v3.75H3zm9.375 6v-3H9.094L7.547 9.922a1.062 1.062 0 01-.797.328c-.328 0-.586-.094-.797-.328L4.406 8.375H1.125v3h11.25zm-2.063-1.5c0 .164.047.305.165.398.093.118.234.165.398.165a.565.565 0 00.563-.563c0-.14-.07-.281-.165-.398a.665.665 0 00-.398-.165.565.565 0 00-.398.165.549.549 0 00-.165.398z"/></symbol><symbol viewBox="0 0 10 6" id="icon-dropdown" xmlns="http://www.w3.org/2000/svg"><path d="M4.771 5.46a.292.292 0 00.432 0L8.961 1.73c.127-.102.127-.305 0-.432L8.453.814c-.101-.126-.305-.126-.432 0L5 3.811 1.953.814a.292.292 0 00-.432 0l-.507.483c-.127.127-.127.33 0 .432L4.77 5.46z"/></symbol><symbol viewBox="0 0 12 15" id="icon-file" xmlns="http://www.w3.org/2000/svg"><path d="M11.34 4.086c0-.164-.081-.328-.19-.465L8.47.941C8.333.832 8.169.75 8.005.75H7.84v3.5h3.5v-.164zM7.623 5.125h3.719v8.969a.66.66 0 01-.192.465.64.64 0 01-.464.191H1.497c-.191 0-.355-.055-.465-.191-.136-.11-.191-.274-.191-.465V1.406a.64.64 0 01.191-.465.66.66 0 01.465-.191h5.469v3.719c0 .191.055.355.191.465.11.136.274.191.465.191zm-3.418 6.59l.547-.574c0-.028.027-.055.027-.11 0-.054-.027-.082-.054-.11L3.63 9.939l1.094-.985c.027 0 .054-.027.054-.082 0-.055-.027-.082-.027-.137l-.547-.574c-.027 0-.055-.027-.11-.027-.054 0-.081.027-.081.027L2.235 9.828c-.054.055-.054.082-.054.11 0 .054 0 .082.054.109l1.778 1.668c0 .027.027.027.082.027.054 0 .082 0 .11-.027zm1.422 1.367c.027.027.055.027.11 0 .027-.027.054-.055.054-.11l1.695-5.769c0-.027-.027-.055-.027-.11l-.082-.081-.766-.219c-.054 0-.082 0-.109.027-.055.028-.055.055-.055.082l-1.695 5.77c0 .055 0 .082.027.11 0 .054.028.081.082.081l.766.219zm4.375-3.035c.027-.027.055-.055.055-.11 0-.027-.028-.054-.055-.109L8.224 8.16c-.028 0-.055-.027-.11-.027-.054 0-.082.027-.082.027l-.547.574c-.027.055-.027.082-.027.137 0 .055 0 .082.055.082l1.093.985-1.093.984c-.055.027-.055.055-.055.11 0 .054 0 .081.027.109l.547.574c0 .027.028.027.082.027.055 0 .082 0 .11-.027L10 10.047z"/></symbol><symbol viewBox="0 0 12 9" id="icon-folder" xmlns="http://www.w3.org/2000/svg"><path d="M10.875 1.5h-4.5L4.875 0h-3.75C.492 0 0 .516 0 1.125v6.75A1.11 1.11 0 001.125 9h9.75C11.485 9 12 8.508 12 7.875v-5.25A1.14 1.14 0 0010.875 1.5z"/></symbol><symbol viewBox="0 0 12 10" id="icon-hamburger" xmlns="http://www.w3.org/2000/svg"><path d="M11.07 1.773a.309.309 0 00.305-.304V.656a.328.328 0 00-.305-.304H.305A.309.309 0 000 .656v.813c0 .177.127.304.305.304H11.07zm0 4.063a.309.309 0 00.305-.305V4.72a.328.328 0 00-.305-.305H.305A.309.309 0 000 4.72v.812c0 .178.127.305.305.305H11.07zm0 4.062a.309.309 0 00.305-.304V8.78a.328.328 0 00-.305-.304H.305A.309.309 0 000 8.78v.813c0 .177.127.304.305.304H11.07z"/></symbol><symbol viewBox="0 0 13 13" id="icon-share" xmlns="http://www.w3.org/2000/svg"><path d="M10.938.625H1.312C.575.625 0 1.227 0 1.938v9.624c0 .739.574 1.313 1.313 1.313h9.624c.711 0 1.313-.574 1.313-1.313V1.938A1.33 1.33 0 0010.937.625zm-.165 10.938H1.477c-.11 0-.165-.055-.165-.165V2.102c0-.082.055-.164.165-.164h9.296c.082 0 .165.082.165.164v9.296c0 .11-.083.165-.165.165zM9.297 3.25H5.578c-.3 0-.465.355-.246.574l1.313 1.313-3.938 3.937c-.137.137-.137.356 0 .465l.629.629c.11.137.328.137.465 0L7.738 6.23l1.313 1.313c.219.191.574.055.574-.246V3.578a.353.353 0 00-.328-.328z"/></symbol><symbol viewBox="0 0 8 5" id="icon-triangle" xmlns="http://www.w3.org/2000/svg"><path d="M6.925 4.75c.14 0 .282-.047.399-.164a.565.565 0 00.164-.399c0-.14-.07-.28-.164-.398L4.534 1a.665.665 0 00-.398-.164.565.565 0 00-.398.164L.948 3.79a.549.549 0 00-.163.397c0 .165.047.305.164.399.093.117.234.164.398.164h5.578z"/></symbol></svg>