<svg width="48" height="25" viewBox="0 0 48 25" xmlns="http://www.w3.org/2000/svg"><g fill="none" fill-rule="evenodd"><circle cx="26" cy="26" r="26" fill="none" fill-opacity="0" transform="translate(-2 -14)"/><g fill="#333" fill-rule="nonzero"><path d="M42.737 0H10.205a5.27 5.27 0 00-5.263 5.263v.867H3.158A3.162 3.162 0 000 9.287v5.53a3.162 3.162 0 003.158 3.159h1.784v.866a5.27 5.27 0 005.263 5.263h32.532A5.27 5.27 0 0048 18.842V5.263A5.27 5.27 0 0042.737 0zM3.157 15.87a1.054 1.054 0 01-1.052-1.052v-5.53c.001-.582.472-1.052 1.053-1.053h1.784v7.635H3.158zm42.738 2.972A3.161 3.161 0 0142.737 22H10.205a3.161 3.161 0 01-3.158-3.158V5.263a3.161 3.161 0 013.158-3.158h32.532a3.161 3.161 0 013.158 3.158v13.58z"/><path d="M19.609 11h-1.844V9.157a1.053 1.053 0 10-2.105 0V11h-1.843a1.053 1.053 0 100 2.105h1.843v1.844a1.053 1.053 0 102.105 0v-1.844h1.844a1.053 1.053 0 100-2.105zM38.561 8.104c-.581 0-1.052.471-1.052 1.053v5.792a1.053 1.053 0 102.105 0V9.157c0-.582-.471-1.053-1.053-1.053z"/></g></g></svg>
