<svg width="39" height="48" viewBox="0 0 39 48" xmlns="http://www.w3.org/2000/svg"><g transform="translate(-7 -2)" fill="none" fill-rule="evenodd"><circle fill="none" cx="26" cy="26" r="26"/><g fill="#333" fill-rule="nonzero"><path d="M36.6 7.6H35a.8.8 0 100 1.6h1.6a.8.8 0 100-1.6zM13.4 19.6H11v11.2h9.6V19.6H13.4zm3.2 1.6v2.4H15v-2.4h1.6zm2.4 0v8h-6.4v-8h.8v4h4.8v-4h.8zM23 18a.8.8 0 00-.8.8v12.8a.8.8 0 101.6 0V18.8a.8.8 0 00-.8-.8zM29.4 18a.8.8 0 00-.8.8v12.8a.8.8 0 101.6 0V18.8a.8.8 0 00-.8-.8zM19 38a.8.8 0 00.8.8h12.8a.8.8 0 100-1.6H19.8a.8.8 0 00-.8.8z"/><path d="M43.664 2H8.736C7.779 2 7 2.78 7 3.736v43.92A2.346 2.346 0 009.344 50h33.712a2.347 2.347 0 002.344-2.344V3.736C45.4 2.779 44.62 2 43.664 2zM8.6 3.736c0-.075.06-.136.136-.136H25.4V34H8.6V3.736zm35.2 43.92c0 .41-.334.744-.744.744H9.344a.745.745 0 01-.744-.744V35.6h35.2v12.056zM27 34V3.6h16.664c.075 0 .136.06.136.136V34H27z"/></g></g></svg>
