<svg width="16" height="14" viewBox="0 0 16 14" xmlns="http://www.w3.org/2000/svg" xmlns:xlink="http://www.w3.org/1999/xlink"><defs><path d="M0 3.326a.995.995 0 011-.993h14c.552 0 1 .44 1 .993v.681A.995.995 0 0115 5H1c-.552 0-1-.44-1-.993v-.68zM0 8.66a.995.995 0 011-.993h14c.552 0 1 .44 1 .993v.68a.995.995 0 01-1 .993H1c-.552 0-1-.44-1-.993v-.68zm0 5.333A.995.995 0 011 13h14c.552 0 1 .44 1 .993v.68a.995.995 0 01-1 .994H1c-.552 0-1-.44-1-.993v-.681z" id="a"/></defs><use fill="#333" xlink:href="#a" transform="translate(0 -2)" fill-rule="evenodd"/></svg>
