<svg width="48" height="45" viewBox="0 0 48 45" xmlns="http://www.w3.org/2000/svg"><g transform="translate(-2 -4)" fill="none" fill-rule="evenodd"><circle fill="none" cx="26" cy="26" r="26"/><g transform="translate(2 4)" fill="#333" fill-rule="nonzero"><path d="M47.656 20.353l-23-20.107a.999.999 0 00-1.312 0l-23 20.107a1.014 1.014 0 00-.282 1.111 1 1 0 00.938.653h5V43.23c0 .556.447 1.005 1 1.005h34c.553 0 1-.45 1-1.005V22.117h5a1 1 0 00.938-.653 1.014 1.014 0 00-.282-1.11zM41 20.107c-.553 0-1 .45-1 1.005v21.113H8V21.112c0-.556-.447-1.005-1-1.005H3.674L24 2.337l20.326 17.77H41z"/><circle cx="28.235" cy="22.588" r="1.882"/><path d="M20.33 23.247c0 .78.127 1.549.382 2.295l-6.291 6.29a1.035 1.035 0 00-.303.733v3.106c0 .572.463 1.035 1.035 1.035h3.106c.275 0 .538-.11.732-.303l6.29-6.29a7.124 7.124 0 002.295.381c3.996 0 7.248-3.251 7.248-7.247S31.572 16 27.576 16c-3.995 0-7.247 3.251-7.247 7.247zm7.246-5.177a5.182 5.182 0 015.177 5.177 5.182 5.182 0 01-5.177 5.176 5.116 5.116 0 01-2.12-.466 1.028 1.028 0 00-1.16.212l-6.466 6.466h-1.642v-1.642l6.467-6.466c.305-.305.388-.766.212-1.158a5.135 5.135 0 01-.467-2.122 5.182 5.182 0 015.176-5.177z"/></g></g></svg>
