<svg xmlns="http://www.w3.org/2000/svg">
  <view id="stats" viewBox="0 0 48 23"/>

  <g id="img-stats">
    <g xmlns="http://www.w3.org/2000/svg"  fill="none" fill-rule="evenodd" transform="translate(-2 -16)"><circle cx="26" cy="26" r="26"/><g fill="#333" fill-rule="nonzero"><path d="M44.903 16c-2.81 0-5.096 2.312-5.096 5.153 0 1.037.305 2.002.828 2.81l-5.506 5.568a5.025 5.025 0 00-2.78-.837c-1.062 0-2.05.33-2.866.895l-5.563-5.626a5.162 5.162 0 00.827-2.81c0-2.841-2.286-5.153-5.096-5.153s-5.097 2.312-5.097 5.153c0 1.036.305 2 .828 2.81L9.875 29.53a5.025 5.025 0 00-2.778-.836C4.287 28.694 2 31.005 2 33.847 2 36.688 4.286 39 7.097 39c2.81 0 5.096-2.312 5.096-5.153a5.162 5.162 0 00-.828-2.81l5.506-5.568c.8.529 1.755.837 2.78.837s1.98-.308 2.78-.837l5.593 5.657a5.163 5.163 0 00-.771 2.72c0 2.842 2.286 5.154 5.096 5.154s5.097-2.312 5.097-5.153c0-1.036-.305-2.001-.828-2.81l5.507-5.568c.8.529 1.754.837 2.778.837 2.81 0 5.097-2.311 5.097-5.153C50 18.312 47.714 16 44.903 16zM7.097 36.87c-1.65 0-2.99-1.356-2.99-3.023s1.34-3.023 2.99-3.023c1.648 0 2.99 1.356 2.99 3.023s-1.342 3.023-2.99 3.023zM19.65 24.176c-1.649 0-2.99-1.356-2.99-3.023s1.341-3.023 2.99-3.023c1.649 0 2.99 1.356 2.99 3.023s-1.341 3.023-2.99 3.023zM32.349 36.87c-1.649 0-2.99-1.356-2.99-3.023s1.341-3.023 2.99-3.023c1.649 0 2.99 1.356 2.99 3.023s-1.341 3.023-2.99 3.023zm12.554-12.694c-1.648 0-2.99-1.356-2.99-3.023s1.342-3.023 2.99-3.023c1.649 0 2.99 1.356 2.99 3.023s-1.341 3.023-2.99 3.023z"/><path d="M18.71 28.29a.992.992 0 00-1.403 0l-2.017 2.017a.992.992 0 001.403 1.403l2.016-2.017a.991.991 0 000-1.403zM37.71 22.29a.992.992 0 00-1.403 0l-2.017 2.017a.992.992 0 001.403 1.403l2.017-2.017a.992.992 0 000-1.403z"/></g></g>
  </g>
</svg>


