<svg xmlns="http://www.w3.org/2000/svg"><style>.a{fill:#666;stroke:#666;}.b{fill:#8C8B8B;}.c{fill:none;}.d{fill:#FFF;}.e{fill:#333;}</style><symbol xmlns="http://www.w3.org/2000/svg" viewBox="0 0 10 16"><path d="M8.3 8.7L2.2 14.7a1 0 1 1-1.4-1.4l5.3-5.3-5.3-5.3A1 0 0 1 2.2 1.3l6 6a1 0 0 1 0 1.4z" class="a"/></symbol><symbol xmlns="http://www.w3.org/2000/svg" viewBox="0 0 53 52"><rect width="53" height="52" rx="26" style="fill-opacity:0.4;fill:#D8D8D8"/><path d="M11.7 24l10-9A2 2 0 0 1 25 16.5v18a2 2 0 0 1-3.3 1.5l-10-9a2 2 0 0 1 0-3z" class="b"/><path d="M24.7 24l10-9A2 2 0 0 1 38 16.5v18a2 2 0 0 1-3.3 1.5l-10-9a2 2 0 0 1 0-3z" class="b"/></symbol><symbol xmlns="http://www.w3.org/2000/svg" viewBox="0 0 48 41"><g class="c"><path d="M-71-251h748V959H-71z"/><circle cx="26" cy="26" r="26"/><g class="d"><path d="M38 19.1a1 1 0 0 0-1-1H5a1 1 0 0 0-1 1v4a1 1 0 0 0 1 1h30a1 1 0 0 0 1-1v-4zm-2 3H6v-2h28v2zM5 8.1h22a1 1 0 1 0 0-2H5a1 1 0 1 0 0 2z"/><circle cx="34" cy="6.1" r="2"/><path d="M30 31.1a1 1 0 1 0-2 0c0 1.8 2.8 1.2 3.6 1.2 2.4a1 1 0 1 0 2 0c0-1.8-0.6-2.8-1.2-3.6-0.5-0.7-0.8-1.2-0.8-2.4zm-17-1a1 1 0 0 0-1 1c0 1.2-0.4 1.7-0.8 2.4C8.6 28.3 8 29.3 8 31.1a1 1 0 1 0 2 0c0-1.2-1.7-2.4-0.8 1.2-1.8 1.2-3.6a1 1 0 0 0-1-1zm8 0a1 1 0 0 0-1 1v6a1 1 0 1 0 2 0v-6a1 1 0 0 0-1-1zm23 0h-1v-1a1 1 0 1 0-2 0v1h-1a1 1 0 1 0 0 2h1v1a1 1 0 1 0 2 0v-1h1a1 1 0 1 0 0-2zm0 8h-4a1 1 0 1 0 0 2h4a1 1 0 1 0 0-2z"/><path d="M44 18.1h-4v-14c0-2.2-1.8-4-4-4H4c-2.2 0-4 1.8-4 4v14c0 2.2 1.8 4 4 4h28v10c0 4.4 3.6 8 8 8s8-3.6 8-8v-10c0-2.2-1.8-4-4-4zm-11.4 2H4c-1.1 0-2-0.9-2-2v-14c0-1.1-2 2-2h32c1.1 0 2 0.9 2 2v14h-2c-1.5 0-2.7-3.4 2zm13.4 12c0 3.3-2.7 6-6 6s-6-2.7-6-6v-10c0-1.1-2 2-2h8c1.1 0 2 0.9 2 2v10z"/></g></g></symbol><symbol xmlns="http://www.w3.org/2000/svg" viewBox="0 0 48 41"><g class="c"><path d="M-71-251h748V959H-71z" class="e"/><circle cx="26" cy="26" r="26"/><g class="d"><path d="M38 19.1a1 1 0 0 0-1-1H5a1 1 0 0 0-1 1v4a1 1 0 0 0 1 1h30a1 1 0 0 0 1-1v-4zm-2 3H6v-2h28v2zM5 8.1h22a1 1 0 1 0 0-2H5a1 1 0 1 0 0 2z"/><circle cx="34" cy="6.1" r="2"/><path d="M30 31.1a1 1 0 1 0-2 0c0 1.8 2.8 1.2 3.6 1.2 2.4a1 1 0 1 0 2 0c0-1.8-0.6-2.8-1.2-3.6-0.5-0.7-0.8-1.2-0.8-2.4zm-17-1a1 1 0 0 0-1 1c0 1.2-0.4 1.7-0.8 2.4C8.6 28.3 8 29.3 8 31.1a1 1 0 1 0 2 0c0-1.2-1.7-2.4-0.8 1.2-1.8 1.2-3.6a1 1 0 0 0-1-1zm8 0a1 1 0 0 0-1 1v6a1 1 0 1 0 2 0v-6a1 1 0 0 0-1-1zm23 0h-1v-1a1 1 0 1 0-2 0v1h-1a1 1 0 1 0 0 2h1v1a1 1 0 1 0 2 0v-1h1a1 1 0 1 0 0-2zm0 8h-4a1 1 0 1 0 0 2h4a1 1 0 1 0 0-2z"/><path d="M44 18.1h-4v-14c0-2.2-1.8-4-4-4H4c-2.2 0-4 1.8-4 4v14c0 2.2 1.8 4 4 4h28v10c0 4.4 3.6 8 8 8s8-3.6 8-8v-10c0-2.2-1.8-4-4-4zm-11.4 2H4c-1.1 0-2-0.9-2-2v-14c0-1.1-2 2-2h32c1.1 0 2 0.9 2 2v14h-2c-1.5 0-2.7-3.4 2zm13.4 12c0 3.3-2.7 6-6 6s-6-2.7-6-6v-10c0-1.1-2 2-2h8c1.1 0 2 0.9 2 2v10z"/></g></g></symbol><symbol xmlns="http://www.w3.org/2000/svg" viewBox="0 0 48 41"><g class="c"><circle cx="26" cy="26" r="26"/><g class="e"><path d="M38 19.1a1 1 0 0 0-1-1H5a1 1 0 0 0-1 1v4a1 1 0 0 0 1 1h30a1 1 0 0 0 1-1v-4zm-2 3H6v-2h28v2zM5 8.1h22a1 1 0 1 0 0-2H5a1 1 0 1 0 0 2z"/><circle cx="34" cy="6.1" r="2"/><path d="M30 31.1a1 1 0 1 0-2 0c0 1.8 2.8 1.2 3.6 1.2 2.4a1 1 0 1 0 2 0c0-1.8-0.6-2.8-1.2-3.6-0.5-0.7-0.8-1.2-0.8-2.4zm-17-1a1 1 0 0 0-1 1c0 1.2-0.4 1.7-0.8 2.4C8.6 28.3 8 29.3 8 31.1a1 1 0 1 0 2 0c0-1.2-1.7-2.4-0.8 1.2-1.8 1.2-3.6a1 1 0 0 0-1-1zm8 0a1 1 0 0 0-1 1v6a1 1 0 1 0 2 0v-6a1 1 0 0 0-1-1zm23 0h-1v-1a1 1 0 1 0-2 0v1h-1a1 1 0 1 0 0 2h1v1a1 1 0 1 0 2 0v-1h1a1 1 0 1 0 0-2zm0 8h-4a1 1 0 1 0 0 2h4a1 1 0 1 0 0-2z"/><path d="M44 18.1h-4v-14c0-2.2-1.8-4-4-4H4c-2.2 0-4 1.8-4 4v14c0 2.2 1.8 4 4 4h28v10c0 4.4 3.6 8 8 8s8-3.6 8-8v-10c0-2.2-1.8-4-4-4zm-11.4 2H4c-1.1 0-2-0.9-2-2v-14c0-1.1-2 2-2h32c1.1 0 2 0.9 2 2v14h-2c-1.5 0-2.7-3.4 2zm13.4 12c0 3.3-2.7 6-6 6s-6-2.7-6-6v-10c0-1.1-2 2-2h8c1.1 0 2 0.9 2 2v10z"/></g></g></symbol><symbol xmlns="http://www.w3.org/2000/svg" viewBox="0 0 48 25"><g class="c"><circle transform="translate(-2 -14)" cx="26" cy="26" r="26"/><g class="e"><path d="M42.7 0H10.2a5.3 5.3 0 0 0-5.3 5.3v0.9H3.2A3.2 3.2 0 0 0 0 9.3v5.5a3.2 3.2 0 0 0 3.2 3.2h1.8v0.9a5.3 5.3 0 0 0 5.3 5.3h32.5A5.3 5.3 0 0 0 48 18.8V5.3A5.3 5.3 0 0 0 42.7 0zM3.2 15.9a1.1 1.1 0 0 1-1.1-1.1v-5.5a1.1 1.1 0 0 1 1.1-1.1h1.8v7.6H3.2zm42.7 3A3.2 3.2 0 0 1 42.7 22H10.2a3.2 3.2 0 0 1-3.2-3.2V5.3a3.2 3.2 0 0 1 3.2-3.2h32.5a3.2 3.2 0 0 1 3.2 3.2v13.6z"/><path d="M19.6 11h-1.8V9.2a1.1 1.1 0 1 0-2.1 0V11h-1.8a1.1 1.1 0 1 0 0 2.1h1.8v1.8a1.1 1.1 0 1 0 2.1 0v-1.8h1.8a1.1 1.1 0 1 0 0-2.1zm19-2.9c-0.6 0-1.1-1.1 1.1v5.8a1.1 1.1 0 1 0 2.1 0V9.2c0-0.6-0.5-1.1-1.1-1.1z"/></g></g></symbol><symbol xmlns="http://www.w3.org/2000/svg" viewBox="0 0 48 36"><g class="c"><path d="M-171-253h748V957h-748z"/><circle cx="26" cy="26" r="26"/><g class="d"><path d="m24 26c3.3 0 6-2.7 6-6s-2.7-6-6-6-6 2.7-6 6 2.7 6 6 6zm0-10c2.2 0 4 1.8 4 4s-1.8 4-4 4-4-1.8-4-4 1.8-4 4-4z"/><path d="M25 29a1 1 0 0 0 1-1 1 1 0 1 0 0-2c-1.1 0-2 0.9-2 2a1 1 0 0 0 1 1z"/><path d="M49 8H3a1 1 0 0 0-1 1v7c0 2.2 1.8 4 4 4v4c0 11 9 20 20 20s20-9 20-20v-4c2.2 0 4-1.8 4-4V1a1 1 0 0 0-1-1zm-5 16c0 9.9-8.1 18-18 18S6 25.9 6 16v-4h12.1C15.6 13.8 14 16.7 14 20c0 5.5 4.5 10 10 10s10-4.5 10-10c0-3.3-1.6-6.2-4.1-8H42v4zm-18-4c4.4 0 8 3.6 8 8s-3.6 8-8 8-8-3.6-8-8 3.6-8 8-8zm22-4c0 1.1-0.9 2-2 2H4c-1.1 0-2-0.9-2-2V2h44v6z"/><circle cx="37" cy="15" r="1"/></g></g></symbol><symbol xmlns="http://www.w3.org/2000/svg" viewBox="0 0 48 36"><g class="c"><path d="M-171-253h748V957h-748z" class="e"/><circle cx="26" cy="26" r="26"/><g class="d"><path d="m24 26c3.3 0 6-2.7 6-6s-2.7-6-6-6-6 2.7-6 6 2.7 6 6 6zm0-10c2.2 0 4 1.8 4 4s-1.8 4-4 4-4-1.8-4-4 1.8-4 4-4z"/><path d="M25 29a1 1 0 0 0 1-1 1 1 0 1 0 0-2c-1.1 0-2 0.9-2 2a1 1 0 0 0 1 1z"/><path d="M49 8H3a1 1 0 0 0-1 1v7c0 2.2 1.8 4 4 4v4c0 11 9 20 20 20s20-9 20-20v-4c2.2 0 4-1.8 4-4V1a1 1 0 0 0-1-1zm-5 16c0 9.9-8.1 18-18 18S6 25.9 6 16v-4h12.1C15.6 13.8 14 16.7 14 20c0 5.5 4.5 10 10 10s10-4.5 10-10c0-3.3-1.6-6.2-4.1-8H42v4zm-18-4c4.4 0 8 3.6 8 8s-3.6 8-8 8-8-3.6-8-8 3.6-8 8-8zm22-4c0 1.1-0.9 2-2 2H4c-1.1 0-2-0.9-2-2V2h44v6z"/><circle cx="37" cy="15" r="1"/></g></g></symbol><symbol xmlns="http://www.w3.org/2000/svg" viewBox="0 0 512 512"><path d="M449.7 239.8c-0.5-7.5-7.1-13.2-14.6-12.7-7.5-13.2 7.1-12.7 14.6 4.7 9.4 14.2 0 109.1-88.7 197.8-197.8 197.8S27.4 365.1 27.4 256 116.1 58.2 225.1 58.2c43.2 0 84.2 13.7 118.6 39.5 6 4.5 14.6 3.3 19.2-2.7 4.5-6 3.3-14.6-2.7-19.2-39.2-29.4-85.9-45-135.1-45C101 30.9 0 131.9 0 256s101 225.1 225.1 225.1S450.3 380.1 450.3 256c0-5.4-0.2-10.8-0.6-16.2z"/><path d="m496.4 61.8c-20.8-20.8-54.7-20.8-75.5 0l-197.1 197.1-69.9-69.9c-20.8-20.8-54.7-20.8-75.5 0-20.8 20.8-20.8 54.7 0 75.5l120.3 120.3c6.9 6.9 16 10.3 25 10.3 9.1 0 18.1-3.4 25-10.3l247.6-247.6c20.8-20.8 20.8-54.7 0-75.5zm-19.3 56.1-247.6 247.6c-3.1 3.1-8.2 3.1-11.3 0l-120.3-120.3c-10.1-10.1-10.1-26.6 0-36.8 5.1-5.1 11.7-7.6 18.4-7.6s13.3 2.5 18.4 7.6l71.9 71.9a24.4 24.4 0 0 0 17.3 7.2c6.6 0 12.7-2.6 17.3-7.2l199.1-199.1c10.1-10.1 26.6-10.1 36.8 0 10.1 10.1 10.1 26.6 0 36.8z"/></symbol><symbol xmlns="http://www.w3.org/2000/svg" viewBox="0 0 14 14"><path d="M8.1 7l4.7-4.7a0.8 0 1 0-1.1-1.1L7 5.9l-4.7-4.7A0.8 0 1 0 1.2 2.3l4.7 4.7-4.7 4.7a0.8 0 1 0 1.1 1.1l4.7-4.7 4.7 4.7a0.7 0 0 0 1.1 0 0.8 0 0 0 0-1.1L8.1 7z" class="a"/></symbol><symbol xmlns="http://www.w3.org/2000/svg" viewBox="0 0 14 14"><path d="M-70-407h748V803H-70z" class="e"/><path d="M8.1 7l4.7-4.5a0.7 0 0 0 0-1 0 0 0-1.1 0L7 6l-4.7-4.5a0.8 0 0 0-1.1 0 0.7 0 0 0 0 1l4.7 4.6-4.7 4.6a0.7 0 0 0 0 1 0 0 0 0.5c0.2 0 0.4-0.1-0.2l4.7-4.5 4.7 4.6a0.8 0 0 0 0.5 0 0 0 0.5-0.2 0 0 0 0-1l-4.7-4.5z" style="fill:#FFF;stroke:#FFF"/></symbol><symbol xmlns="http://www.w3.org/2000/svg" viewBox="0 0 39 48"><g class="c"><circle cx="26" cy="26" r="26"/><g class="e"><path d="M29.6 5.6H28a0.8 0 1 0 0 1.6h1.6a0.8 0 1 0 0-1.6zm-23.2 12H11v11.2h9.6V19.6h-7.2zm3.2 1.6v2.4H15v-2.4h1.6zm2.4 0v8h-6.4v-8h0.8v4h4.8v-4h0.8zm4-3.2a0.8 0 0 0-0.8v12.8a0.8 0 1 0 1.6 0V18.8a0.8 0 0 0-0.8-0.8zm6.4 0a0.8 0 0 0-0.8v12.8a0.8 0 1 0 1.6 0V18.8a0.8 0 0 0-0.8-0.8zM19 38a0.8 0 0 0 0.8h12.8a0.8 0 1 0 0-1.6H19.8a0.8 0 0 0-0.8z"/><path d="M36.7 0H1.7C0.8 0 0 0.8 0 1.7v43.9A2.3 2.3 0 0 0 9.3 50h3 3. 7 1 2- 7a2. 3 4 7, 2. 3 4 7, 0, 0, 0, 2. 3 4 4,- 2. 3 4 4- 2V3.7C45.4 2.8 44.6 2 43.7 2zM8.6 3.7c0-0.1-0.1-0.1H2 5. 4- 7V3 4- 2H8.6V3.7zm35.2 43.9c0 0.4-0.3-0.7H9. 3 4 4- 7a0. 7 4 5, 0, 0, 1,- 0. 7 4 4,- 0. 7 4 4- 2V35.6h35.2v12.1zM27 34V3. 6- 7h1 6. 6 6 4- 2c0.1 0 0.1V34H27z"/></g></g></symbol><symbol xmlns="http://www.w3.org/2000/svg" viewBox="0 0 16 14"><defs><path d="M0 3.3a1 0 0 1 1-1h14c0.6 0 1 0.4 1 1v0.7A1 0 0 1 15 5H1c-0.6 0-1-0.4-1-1v-0.7zM0 8.7a1 0 0 1 1-1h14c0.6 0 1 0.4 1 1v0.7a1 0 0 1-1 1H1c-0.6 0-1-0.4-1-1v-0.7zm0 5.3A1 0 0 1 1 13h14c0.6 0 1 0.4 1 1v0.7a1 0 0 1-1 1H1c-0.6 0-1-0.4-1-1v-0.7z"/></defs><use transform="translate(0 -2)" xlink:href="#a" class="e"/></symbol><symbol xmlns="http://www.w3.org/2000/svg" viewBox="0 0 41 48"><g class="c"><circle transform="translate(-6 -2)" cx="26" cy="26" r="26"/><path d="M10.9 5c0.8-1 1.1-2.5-3.7A1 1 0 0 1 13.6c0.5 1.8 4.1-1.1 5.6-1.1 1.4-1.4 3.8-0.1 4.9a1 1 0 0 1-1.4 1.5c-2.1-2-1.8-5.6-0.1-7.7zm6.7 1.2h6.7a1 1 0 0 0 0-2h-6.7a1 1 0 0 0 0 2zm22.8 9.8v8.2c0 4.1-3.1 7.5-7 8v9.1h1c0.6 0 1 1 1v4.5c0 0.6-0.5 1-1 1H1.1a1 1 0 0 1-1-1v-4.5c0-0.6-1 1-1h0.9c-0.4-8.8-18.8 4-22L0.3 11.6a1 1 0 0 1-0.2-0.6V9a1 1 0 0 1 1-1h4.2c0.2-1.1-2.1 1.3-2.9-1 1.1-2.5-3.7A1 1 0 0 1 9.3c0.5 1.8 4.1-1.1 5.6-0.6-0.9 1.7-0.9 2.6a1.1 1.1 0 0 1 0c0 1.6 2.1a1 1 0 0 1-1.4 1.5c-0.7-0.7-1.2-1.6-1.4-2.7H2.1v0.6l6 8.3a1.1 1.1 0 0 1 0.2c0 0 0.4h0v0a1 1 0 0 1-0.5c-1.3-2.4 3.1-3.1 6.7-0.7 3.8-1 8.7-0.7 14.2h27.4V31.3c0-0.6-1 1-1a6 6 0 0 0 6-6V16a6 6 0 0 0-6-6h-7v22.2a3.2 3.2 0 0 1-3.2 3.2 3.2 3.2 0 0 1-3.2-3.2V13.1a1 1 0 0 1 2 0v19.1a1.2 1.2 0 0 0 2.4 0v-22.2l-8.8V8h17.9c4.4 0 8.1 3.6 8.1 8.1zm-7 27.4H2.1v2.5h31.3v-2.5zm-1-17.1c0.6 0 1-0.5 1-1V15a1 1 0 0 0-2 0v10.4c0 0.6 1 1 1z" class="e"/></g></symbol><symbol xmlns="http://www.w3.org/2000/svg" viewBox="0 0 48 45"><g class="c"><circle cx="26" cy="26" r="26"/><g class="e"><path d="M49.7 24.4l-23-20.1a1 0 0 0-1.3 0l-23 20.1a1 1 0 0 0-0.3 1.1 1 1 0 0 0 0.9h5V43.2c0 0.6 1 1 1h34c0.6 0 1-0.4 1-1V22.1h5a1 1 0 0 0 0.9-0.7 1 1 0 0 0-0.3-1.1zM41 20.1c-0.6 0-1 0.5-1 1v21.1H8V21.1c0-0.6-0.4-1-1-1H3.7L24 2.3l20.3 17.8H41z"/><circle cx="28.2" cy="22.6" r="1.9"/><path d="M22.3 27.2c0 0.8 1.5 2.3l-6.3 6.3a1 1 0 0 0-0.3v3.1c0 0.6 1 1 1h3.1c0.3 0 0.5-0.1-0.3l6.3-6.3a7.1 7.1 0 0 0 2.3c4 0 7.2-3.3 7.2-7.2S31.6 16 27.6 16c-4 0-7.2 3.3-7.2 7.2zm7.2-5.2a5.2 5.2 0 0 1 5.2 5.2 5.2 5.2 0 0 1-5.2 5.2 5.1 5.1 0 0 1-2.1-0.5 1 1 0 0 0-1.2l-6.5 6.5h-1.6v-1.6l6.5-6.5c0.3-0.3-0.8-1.2a5.1 5.1 0 0 1-0.5-2.1 5.2 5.2 0 0 1 5.2-5.2z"/></g></g></symbol><symbol xmlns="http://www.w3.org/2000/svg" viewBox="0 0 40 48"><g class="c"><circle cx="26" cy="26" r="26"/><path d="M12.3 28.4c0.7-1-2-3.1V4.4c0.9 1 2.1 2.1 3.3 2.7 2.1 1 2.3 2.6 2.2 4.3l0a1.1 1.1 0 0 0 2.2l0-0.2c0.1-1.4-4.6-3.4-6.4-1.8-0.9-3.8-3.5-4.4-4.5l0 0a0.8 0 0 0 0-0.1c0 0 0 0 0 0 0 0 0 0 0 0a1.1 1.1 0 0 0-0.3-0.2l0 0 0 0a1.1 1.1 0 0 0-0.3-0.1c0 0 0 0 0 0 0 0 0 0 0 0l-0.1 0h0l0a0.9 0 0 0-0.1L18 2.2l-0.1 0-0.1-0.1a0.4 0 0 0 0l-0.1 0-0.1 0c0 0 0 0a1.2 1.2 0 0 0-0.1c0 0 0a1.1 1.1 0 0 0-0.3c0 0 0l0a1.1 1.1 0 0 0-0.1l0 0a1.2 1.2 0 0 0 0v20.1c-1-0.7-2.3-1-3.7-1-0.8 0-1.6-2.4-3.5 1.1-5.6 4.4-4.6 7.3 2.2 2.9 3.6 5.6 3.6a7.8 7.8 0 0 0 2.4-0.4c1.7-0.5 3-1.5 3.9-2.9zm-1.8-1.2c-0.6-1.6 1.6-2.8 2a5.6 5.6 0 0 1-1.7c-1.7 0-3.1-0.8-3.5-2.1-0.6-1.8-3.8 3.2-4.5a5.6 5.6 0 0 1 1.7-0.3c1.7 0 3.1 3.5 2.1 1.7-0.5 2.5zm29.3 7.3V12.8c0 0 0-0.1 0-0.1l0 0 0-0.1 0 0 0 0 0-0.1c0 0 0 0 0 0a1.1 1.1 0 0 0 0-0.1l0 0 0 0a1 1 0 0 0 0-0.1l0 0 0 0a1 0 0 0 0 0l0 0a1 1 0 0 0 0 0l0 0a1.2 1.2 0 0 0 0 0 1.1 1.1 0 0 0-0.1-0.1l0 0 0 0c0 0 0 0 0 0l0 0a1.1 1.1 0 0 0-0.1 0l0 0-0.1 0 0 0c0 0 0 0-0.1 0a1.2 1.2 0 0 0-0.1 0l0 0a1.1 1.1 0 0 0-0.1 0h0a0.8 0 0 0-0.1c0 0 0 0 0a0.9 0 0 0-0.1l0c0 0 0a0.6 0 0 0-0.1l0a1.1 1.1 0 0 0-0.1l0-15.7 7 0 0 0a1.2 1.2 0 0 0-0.1l0 0a1.1 1.1 0 0 0 0l0c0 0 0l0a1.2 1.2 0 0 0 0l0a1.2 1.2 0 0 0-0.1l0c0 0 0a0.8 0 0 0 0l0a0.6 0 0 0 0l0c0 0 0l0 0 0 0V39.7c-1-0.7-2.3-1-3.6-1-0.8 0-1.6-2.4-1.6-3 1.6-3.9 2.9-0.9 1.4-1.2 3-0.7 4.4 2.2 2.9 3.6 5.6 3.6 0 1.6-0.1 2.4-0.4 1.7-0.5 3-1.5 3.9-2.9-1.1 1-2.2-3.4V24.6l13.5-6v14.2c-1-0.7-2.3-1-3.6-1-0.8 0-1.6-2.4-3.5 1.1-5.6 4.4-4.6 7.3 2.2 2.9 3.6 5.6 3.6a7.9 7.9 0 0 0 2.4-0.4c1.7-0.5 3-1.5 3.9-2.9-1.1 1-2.2-3.4zM24.5 47.5a5.6 5.6 0 0 1-1.7c-1.7 0-3.1-0.8-3.5-2.1-0.3-0.8-0.1-1.7-2.5-0.9 1.6-1.6 2.8-2a5.6 5.6 0 0 1 1.7-0.3c1.7 0 3.1 3.5 2.1v0.4l0c0-0.2 1.1-0.6 1.6-0.6-1.6 1.6-2.8 2zm5.5-25.3v-1.7l13.5-6v1.8l-13.5 6zm10.2 18.4a5.6 5.6 0 0 1-1.7c-1.7 0-3.1-0.8-3.5-2.1-0.6-1.8-3.8 3.2-4.5a5.6 5.6 0 0 1 1.7-0.3c1.7 0 3.1 3.5 2.1v0.2c0 0 0-0.2 1.1-0.6 1.7-0.6-1.6 1.6-2.8 2z" class="e"/></g></symbol><symbol xmlns="http://www.w3.org/2000/svg" viewBox="0 0 48 29"><g class="c"><circle cx="26" cy="26" r="26"/><g class="e"><path d="M24 0.1c-12.3 0-24 5.3-24 11 0 10.8 3.9 17 24 17s24-6.2 24-17c0-5.7-11.7-11-24-11zm0 2c12.8 0 22 5.4 22 9 0 3.4-8.8 7-22 7s-22-3.6-22-7c0-3.6 9.2-9 22-9zm0 24c-15.7 0-20.6-3.8-21.7-10.9 4.1 3.3 12.9 4.9 21.7 4.9s17.7-1.7 21.7-4.9c-1.1 7.1-6 10.9-21.7 10.9z"/><circle cx="18" cy="5.1" r="1"/><circle cx="22" cy="5.1" r="1"/><circle cx="26" cy="5.1" r="1"/><circle cx="30" cy="5.1" r="1"/><path d="m22 23.1a1 1 0 0 0 1 1h2a1 1 0 1 0 0-2h-2a1 1 0 0 0-1 1z"/></g></g></symbol><symbol xmlns="http://www.w3.org/2000/svg" viewBox="0 0 48 46"><g class="c"><circle transform="translate(-2 -3)" cx="26" cy="26" r="26"/><g class="e"><path d="M42.6 22.4h-27.2V10.6a3.6 3.6 0 1 0-4.8-3.4 3.6 3.6 0 0 0 2.7 3.5v11.8H6.8a5.4 5.4 0 0 0-5.3 5.3v11c0 0.6 1.1 1.1 1.1h3.5v4.5c0 0.6 1.1 1.1 1.1H41.8a1.1 1.1 0 0 0 1.1-1.1v-4.5h4a1.1 1.1 0 0 0 1.1-1.1V27.8a5.4 5.4 0 0 0-5.3-5.3zM12.7 7.2a1.5 1.5 0 1 1 2.9 0 1.5 1.5 0 0 1-2.9 0zM40.8 43.2H8.1v-3.4h32.6v3.4zm5-5.6H3.6v-9.9a3.2 3.2 0 0 1 3.2-3.2h35.8a3.2 3.2 0 0 1 3.2 3.2v9.9z"/><path d="M10.6 28c-0.6 0-1.1-1.1 1.1v4a1.1 1.1 0 1 0 2.1 0v-4a1.1 1.1 0 0 0-1.1-1.1zm26.4-0.7a3.5 3.5 0 1 0 0 7c1.9 0 3.4-1.5 3.5-3.4v0a3.5 3.5 0 0 0-3.5-3.5zm0 4.8a1.4 1.4 0 1 1 1.4-1.4c0-0.6 1.4-1.3 1.4zM16.9 28a1.1 1.1 0 0 0-1.1 1.1v4a1.1 1.1 0 0 0 2.1 0v-4c0-0.6-0.5-1.1-1.1-1.1zM7.5 11.5a1.1 1.1 0 0 0 0.8-1.8 3.9 3.9 0 0 1 0-5.4A1.1 1.1 0 1 0 6.8 2.7a6 6 0 0 0 0 8.5c0.2z"/><path d="M3.4 13.8a1.1 1.1 0 0 0 0.8-1.8c-2.8-2.8-2.8-7.3-10.1A1.1 1.1 0 1 0 2.7c-3.6 3.6-3.6 9.5 13.1z"/></g></g></symbol><symbol xmlns="http://www.w3.org/2000/svg" viewBox="0 0 48 23"><g class="c"><circle cx="26" cy="26" r="26"/><g class="e"><path d="M42.9 0c-2.8 0-5.1 2.3-5.1 5.2 0 1 2 2.8l-5.5 5.6a5 5 0 0 0-2.8-0.8c-1.1 0-2-2.9l-5.6-5.6a5.2 5.2 0 0 0 0.8-2.8c0-2.8-2.3-5.2-5.1-5.2s-5.1 2.3-5.1 5.2c0 1 2 0.8 2.8L9.9 29.5a5 5 0 0 0-2.8-0.8C4.3 28.7 2 31 2 33.8 2 36.7 4.3 39 7.1 39c2.8 0 5.1-2.3 5.1-5.2a5.2 5.2 0 0 0-0.8-2.8l5.5-5.6c0.8 1.8 2.8s2-0.3 2.8-0.8l5.6 5.7a5.2 5.2 0 0 0-0.8 2.7c0 2.8 2.3 5.2 5.1 5.2s5.1-2.3 5.1-5.2a5.2 5.2 0 0 0-0.8-2.8l5.5-5.6c0.8 1.8 2.8 2.8 0 5.1-2.3 5.1-5.2C50 18.3 47.7 16 44.9 16zM7.1 36.9c-1.6 0-3-1.4-3-3s1.3-3 3-3c1.6 0 3 1.4 3 3s-1.3 3-3 3zM19.7 24.2c-1.6 0-3-1.4-3-3s1.3-3 3-3c1.6 0 3 1.4 3 3s-1.3 3-3 3zM32.3 36.9c-1.6 0-3-1.4-3-3s1.3-3 3-3c1.6 0 3 1.4 3 3s-1.3 3-3 3zm12.6-12.7c-1.6 0-3-1.4-3-3s1.3-3 3-3c1.6 0 3 1.4 3 3s-1.3 3-3 3z"/><path d="M16.7 12.3a1 0 0 0-1.4 0l-2 2a1 0 0 0 1.4 1.4l2-2a1 0 0 0 0-1.4zm19-6a1 0 0 0-1.4 0l-2 2a1 0 0 0 1.4 1.4l2-2a1 0 0 0 0-1.4z"/></g></g></symbol><symbol xmlns="http://www.w3.org/2000/svg" viewBox="0 0 48 23"><g class="c"><circle cx="26" cy="26" r="26"/><g class="e"><path d="M42.9 0c-2.8 0-5.1 2.3-5.1 5.2 0 1 2 2.8l-5.5 5.6a5 5 0 0 0-2.8-0.8c-1.1 0-2-2.9l-5.6-5.6a5.2 5.2 0 0 0 0.8-2.8c0-2.8-2.3-5.2-5.1-5.2s-5.1 2.3-5.1 5.2c0 1 2 0.8 2.8L9.9 29.5a5 5 0 0 0-2.8-0.8C4.3 28.7 2 31 2 33.8 2 36.7 4.3 39 7.1 39c2.8 0 5.1-2.3 5.1-5.2a5.2 5.2 0 0 0-0.8-2.8l5.5-5.6c0.8 1.8 2.8s2-0.3 2.8-0.8l5.6 5.7a5.2 5.2 0 0 0-0.8 2.7c0 2.8 2.3 5.2 5.1 5.2s5.1-2.3 5.1-5.2a5.2 5.2 0 0 0-0.8-2.8l5.5-5.6c0.8 1.8 2.8 2.8 0 5.1-2.3 5.1-5.2C50 18.3 47.7 16 44.9 16zM7.1 36.9c-1.6 0-3-1.4-3-3s1.3-3 3-3c1.6 0 3 1.4 3 3s-1.3 3-3 3zM19.7 24.2c-1.6 0-3-1.4-3-3s1.3-3 3-3c1.6 0 3 1.4 3 3s-1.3 3-3 3zM32.3 36.9c-1.6 0-3-1.4-3-3s1.3-3 3-3c1.6 0 3 1.4 3 3s-1.3 3-3 3zm12.6-12.7c-1.6 0-3-1.4-3-3s1.3-3 3-3c1.6 0 3 1.4 3 3s-1.3 3-3 3z"/><path d="M16.7 12.3a1 0 0 0-1.4 0l-2 2a1 0 0 0 1.4 1.4l2-2a1 0 0 0 0-1.4zm19-6a1 0 0 0-1.4 0l-2 2a1 0 0 0 1.4 1.4l2-2a1 0 0 0 0-1.4z"/></g></g></symbol><symbol xmlns="http://www.w3.org/2000/svg" viewBox="0 0 48 48"><g class="c"><circle cx="26" cy="26" r="26"/><g class="e"><path d="M25.1 17c0-1.6-1.4-3-3.1-3s-3.1 1.3-3.1 3v12.3a3.9 3.9 0 0 0-1 2.6c0 2.2 1.8 4 4.1 4s4.1-1.8 4.1-4c0-1-0.4-1.9-1-2.6v-12.3zM24 37.9c-1.1 0-2-0.9-2-2 0-0.6-1.1-1.5a1 0 0 0 0.3-0.7V21c0-0.5-1 1-1 0 1 1v12.7c0 0.3 1.5 0 1.1-0.9 2-2 2z"/><path d="M44 26h-4v-4h3a1 0 0 0 0.9-0.6 0 0 0-0.2-1.1l-21-20a1 1 0 0 0-1.4 0l-21 20a1 0 0 0-0.2 1.1c0.2h3v19a1 1 0 0 0 1 1h27.3c0.9 3.4 4 6 7.7 6 4.4 0 8-3.6 8-8V34c0-2.2-1.8-4-4-4zm-12 4v10H8V25a1 1 0 0 0-1-1H5.5L24 6.4 42.5 24H41a1 1 0 0 0-1 1v5h-2c-2.2 0-4 1.8-4 4zm14 10c0 3.3-2.7 6-6 6s-6-2.7-6-6V34c0-1.1-2 2-2h8c1.1 0 2 0.9 2 2v10z"/><path d="M41.8 32h-1v-1a1 0 1 0-2 0V36h-1a1 0 1 0 0 2h1v1a1 0 1 0 2 0v-1h1a1 0 1 0 0-2zm0 7.8h-3.9a1 0 1 0 0 2h3.9a1 0 1 0 0-2z"/></g></g></symbol></svg>
