<svg width="48" height="48" viewBox="0 0 48 48" xmlns="http://www.w3.org/2000/svg"><g transform="translate(-2 -4)" fill="none" fill-rule="evenodd"><circle fill="none" cx="26" cy="26" r="26"/><g fill="#333" fill-rule="nonzero"><path d="M27.102 21.024c0-1.645-1.373-2.983-3.061-2.983s-3.061 1.338-3.061 2.983v12.301a3.911 3.911 0 00-1.02 2.616c0 2.193 1.83 3.977 4.08 3.977s4.082-1.784 4.082-3.977c0-.96-.366-1.891-1.02-2.616v-12.3zM24.041 37.93c-1.126 0-2.041-.893-2.041-1.99 0-.56.243-1.083.684-1.47a.98.98 0 00.336-.739V21.024c0-.549.459-.994 1.02-.994.563 0 1.021.445 1.021.994v12.707c0 .282.122.55.337.738.44.388.684.91.684 1.472 0 1.096-.915 1.989-2.041 1.989z"/><path d="M46 30h-4v-4h3.031a.998.998 0 00.928-.629.998.998 0 00-.238-1.096l-21.032-20a1 1 0 00-1.379 0l-21 20a.998.998 0 00-.238 1.096c.15.38.52.629.928.629h3v19a1 1 0 001 1h27.284c.894 3.44 3.999 6 7.716 6 4.412 0 8-3.589 8-8V34c0-2.206-1.795-4-4-4zm-12 4v10H8V25a1 1 0 00-1-1H5.5L24 6.38 42.53 24H41a1 1 0 00-1 1v5h-2c-2.205 0-4 1.794-4 4zm14 10c0 3.309-2.691 6-6 6s-6-2.691-6-6V34c0-1.103.897-2 2-2h8c1.103 0 2 .897 2 2v10z"/><path d="M43.796 36h-.98v-.98a.979.979 0 10-1.959 0V36h-.98a.979.979 0 100 1.96h.98v.979a.979.979 0 101.96 0v-.98h.979a.979.979 0 100-1.959zM43.796 43.837h-3.918a.979.979 0 100 1.959h3.918a.979.979 0 100-1.96z"/></g></g></svg>
